<?xml version="1.0" encoding="UTF-8" standalone="no"?>
<svg
   xmlns:dc="http://purl.org/dc/elements/1.1/"
   xmlns:cc="http://creativecommons.org/ns#"
   xmlns:rdf="http://www.w3.org/1999/02/22-rdf-syntax-ns#"
   xmlns:svg="http://www.w3.org/2000/svg"
   xmlns="http://www.w3.org/2000/svg"
   xmlns:sodipodi="http://sodipodi.sourceforge.net/DTD/sodipodi-0.dtd"
   xmlns:inkscape="http://www.inkscape.org/namespaces/inkscape"
   viewBox="0 0 695.35038 1110.5899"
   height="1109"
   width="696"
   xml:space="preserve"
   version="1.1"
   id="svg2"
   inkscape:version="0.91 r13725"
   sodipodi:docname="address-label-template.svg"><sodipodi:namedview
     pagecolor="#ffffff"
     bordercolor="#666666"
     borderopacity="1"
     objecttolerance="10"
     gridtolerance="10"
     guidetolerance="10"
     inkscape:pageopacity="1"
     inkscape:pageshadow="2"
     inkscape:window-width="1920"
     inkscape:window-height="986"
     id="namedview36"
     showgrid="false"
     inkscape:zoom="0.5"
     inkscape:cx="375.12387"
     inkscape:cy="387.20051"
     inkscape:window-x="0"
     inkscape:window-y="30"
     inkscape:window-maximized="1"
     inkscape:current-layer="g10"
     units="px" /><metadata
     id="metadata8"><rdf:RDF><cc:Work
         rdf:about=""><dc:format>image/svg+xml</dc:format><dc:type
           rdf:resource="http://purl.org/dc/dcmitype/StillImage" /><dc:title></dc:title></cc:Work></rdf:RDF></metadata><defs
     id="defs6"><clipPath
       id="clipPath16"
       clipPathUnits="userSpaceOnUse"><path
         style="clip-rule:evenodd"
         id="path18"
         d="m 0,0.2 283.4,0 0,175.7 L 0,175.9 0,0.2 Z"
         inkscape:connector-curvature="0" /></clipPath><clipPath
       id="clipPath24"
       clipPathUnits="userSpaceOnUse"><path
         style="clip-rule:evenodd"
         id="path26"
         d="m 18.4,70.7 70.1,0 0,70.1 -70.1,0 0,-70.1 z"
         inkscape:connector-curvature="0" /></clipPath><clipPath
       id="clipPath34"
       clipPathUnits="userSpaceOnUse"><path
         style="clip-rule:evenodd"
         id="path36"
         d="m 0,0.3 283.4,0 0,175.7 L 0,176 0,0.3 Z"
         inkscape:connector-curvature="0" /></clipPath></defs><g
     transform="matrix(1.25,0,0,-1.25,0,1110.275)"
     id="g10"><g
       id="g3599"
       transform="matrix(0,1,-1,0,557.61556,0.2601833)"><g
         id="g3559"><g
           id="g3520"><g
             id="g3482"><g
               id="g3445"><g
                 id="g3409"><g
                   id="g12"><g
                     clip-path="url(#clipPath16)"
                     id="g14" /></g><g
                   transform="matrix(3.3281224,0,0,3.3281224,-43.679643,-13.182417)"
                   id="g20"><g
                     clip-path="url(#clipPath24)"
                     id="g22"><path
                       id="path28"
                       style="fill:#000000;fill-opacity:1;fill-rule:evenodd;stroke:none"
                       d="M 53,134.1 C 39.1,134.1 27.9,122.9 27.9,109 27.9,95.2 39.1,83.9 53,83.9 c 13.9,0 25.1,11.3 25.1,25.1 0,13.9 -11.2,25.1 -25.1,25.1 z m 0,-3.3 c 12,0 21.8,-9.7 21.8,-21.8 C 74.8,97 65,87.2 53,87.2 41,87.2 31.2,97 31.2,109 c 0,12.1 9.8,21.8 21.8,21.8 z m 0,-3 c -10.4,0 -18.8,-8.4 -18.8,-18.8 0,-10.4 8.4,-18.8 18.8,-18.8 10.4,0 18.8,8.4 18.8,18.8 0,10.4 -8.4,18.8 -18.8,18.8 z m 0.7,-5.7 c 1,0 1.9,-0.5 2.7,-1.4 l 1,0.3 0.9,0.4 c 0.5,0.2 1.6,-0.5 3.3,-1.8 l 0,-0.2 c 0.1,-0.3 -0.4,-0.7 -1.6,-1.2 l 0,-0.3 c 0.8,-0.5 1.8,-1.3 2.9,-2.6 0.2,0.1 0.5,-0.1 1.1,-0.6 l 0.1,-0.3 c -0.1,-0.5 -0.4,-0.9 -1,-1 L 61,112.8 c 1.7,-1 2.6,-2.2 3,-3.4 0.3,-1.4 0.8,-2.5 1.2,-3.2 -0.1,-0.5 0,-1.3 0.2,-2.3 l 0.6,-2.2 c 0.4,-1.3 0.1,-2.2 -1,-2.4 -1.9,0 -3.6,0.7 -5.1,2.1 l -0.1,0.5 c -0.1,0.1 0.3,0.7 1.1,1.9 l -0.2,0 c -1.7,-0.5 -2.4,-1.3 -2.1,-2.2 0.3,-0.8 0.5,-1.3 0.5,-1.4 0,-0.4 -0.2,-0.7 -0.3,-0.8 l -0.9,-0.2 c -2.4,-0.1 -3.9,0.8 -4.4,2.7 l -0.1,-0.1 c 0.3,-1.1 -0.1,-1.8 -1.1,-2.1 L 52,99.6 c -0.6,-0.1 -1.3,0 -2.4,0.5 -0.9,-1.2 -1.6,-1.9 -2,-2 l -0.5,-0.2 c -2.3,0.6 -3.8,2.1 -4.5,4.5 -0.4,1.4 -1,4 -1.9,7.9 -0.6,1.8 -1.2,3.1 -1.7,4.1 0.8,0.6 1.5,1 2.1,1.1 0.9,0 1.4,-0.3 1.5,-0.8 l 2.1,0.9 0.1,-0.2 0.3,0.3 c 1.1,0.3 2,0 2.8,-0.9 1.1,-0.7 1.9,-1.6 2.2,-2.7 0.5,0.4 0.9,0.6 1.2,0.7 -1,0.6 -1.6,1.2 -1.7,1.9 0.1,0.2 0.3,0.3 0.6,0.3 l -0.1,0.4 c -0.3,-0.1 -1,0.3 -2.1,1.1 l -0.2,0.6 c 1.2,0.6 2.1,1 2.7,1.1 l 1.1,0.4 c 0.1,0 0.2,-0.1 0.2,-0.2 0.5,0.3 0.6,0.5 0.6,0.7 l -0.6,2.1 c 0,0.3 0.4,0.6 1.1,0.8 0.3,0.1 0.6,0.1 0.8,0.1 l 0,0 z m 0.4,-0.3 -1.3,-0.2 -0.1,0 c -0.2,-0.1 -0.3,-0.3 -0.4,-0.7 l 0.5,-1.9 -0.1,-0.3 0.2,0 c -0.1,0.1 0.3,1.1 1.2,2.9 l 0,0.2 0,0 z m 0.7,-0.2 -0.1,-0.1 c -0.6,-0.7 -1.3,-2.1 -2.1,-4 0.5,0.1 0.8,-0.2 1,-1 -1.7,-0.6 -2.5,-1.3 -2.3,-2.1 l 0.1,0.1 c 1.5,0.4 2.6,1.8 3.3,4.3 0.6,0.6 0.8,1 0.8,1.1 -0.2,0 -0.4,0.1 -0.5,0.3 l 0,0.2 -0.2,1.2 0,0 z m 3.6,-0.5 c -0.6,-0.8 -1,-1.2 -1.1,-1.2 l 0.1,-0.4 c 1.5,0.4 2.2,0.8 2.1,1.2 0,0.1 -0.4,0.2 -1.1,0.4 z m -1.6,-0.6 c -1,-0.3 -2,-2 -3.1,-5 0.4,-0.4 0.6,-0.8 0.7,-1 l 1.7,3.2 -0.3,0.3 -0.3,1 0.7,0.2 c 0.6,0.2 1,0.6 1.2,1.2 -0.2,0 -0.4,0 -0.6,0.1 l 0,0 z m -5,-2.5 -1.3,-0.1 c 0.1,-0.3 0,-0.7 -0.2,-1.2 1.7,0.6 2.4,1.2 2.3,1.7 L 51.8,118 Z m 6.4,0.1 -0.8,-0.4 -1.2,-0.3 c 0,-0.2 -0.3,-0.8 -0.9,-1.7 0.1,-0.2 -0.3,-1.1 -1.2,-2.9 l 1.5,0.4 c 0.6,0.5 1,1.2 1.2,2 l -0.5,0.9 c 0.2,0.1 0.3,0.2 0.3,0.5 l 0.8,0.2 c 0.2,0 0.4,0.5 0.8,1.3 z m 0.7,0 c -0.1,0 -0.2,-0.1 -0.4,-0.1 l -0.3,-0.8 c 0.1,0 0.3,0 0.6,0 0.6,0.3 0.9,0.5 0.9,0.7 -0.3,0.1 -0.6,0.2 -0.8,0.2 l 0,0 z m -8.7,-0.3 c -0.2,-0.1 -0.9,-0.4 -1.9,-0.9 l 0,-0.2 c 0.2,-0.3 0.6,-0.4 1.2,-0.2 l 0.1,0 c 0.2,0.1 0.4,0.4 0.6,1.1 l 0,0.2 0,0 z m 10.9,-1.7 -0.2,0 c -0.8,-0.2 -1.6,-0.8 -2.3,-1.7 l 0,-0.2 1.9,0.5 c 0.5,0.5 0.7,1 0.6,1.4 l 0,0 z m 0.7,-0.1 -0.1,-0.1 c -0.2,0 -0.4,-0.3 -0.5,-0.8 l 0.8,0.2 -0.2,0.7 0,0 z m -15.7,-0.6 c -0.1,0 -0.2,-0.1 -0.4,-0.1 l -0.3,-0.1 c -0.4,-0.3 -0.6,-0.7 -0.6,-1.2 0.4,-0.4 0.6,-0.8 0.7,-1.3 l 0.2,0 c 0.9,1.4 1.2,2.2 1.2,2.5 -0.3,0.1 -0.6,0.2 -0.8,0.2 l 0,0 z m 4.8,-0.2 c -0.4,-0.3 -0.7,-0.5 -0.9,-0.6 l 0.1,-0.5 0.5,0.1 c 0.2,0.2 0.4,0.5 0.5,1.1 l -0.2,-0.1 z m 6,-0.5 c 0.1,-0.5 0,-0.8 -0.5,-0.9 l 0.1,-0.4 0.3,0.3 1.7,0.4 c -0.1,0.2 0,0.6 0.3,1.1 l -1.9,-0.5 z M 41.5,115 c -0.1,0 -0.3,0 -0.4,0 -0.7,-1.1 -1,-1.8 -0.9,-2.1 l 0.3,-0.6 -0.1,-0.4 c 0.2,-0.2 0.3,-0.4 0.3,-0.5 l 0.2,0.1 c -0.1,0.2 0.3,0.9 1.1,2.1 l 0.3,0.8 -0.1,0.3 c -0.1,0.2 -0.3,0.3 -0.7,0.3 l 0,0 z m 2.9,-0.1 c -1.4,-0.3 -2.3,-1.2 -2.8,-2.7 -0.1,0 -0.4,-0.5 -0.7,-1.3 l 0.5,-1.7 c 1.3,1.7 1.9,3 1.6,3.9 1,0.3 1.5,0.9 1.7,1.9 l -0.3,-0.1 z m -4.2,-0.2 -0.8,-0.3 c 0.2,-0.2 0.3,-0.5 0.4,-0.9 0.2,0.1 0.4,0.5 0.8,1.3 l -0.4,-0.1 z m 7,0.1 c -0.7,-1.5 -1.2,-2.3 -1.4,-2.4 l 0.5,-2 c 1.2,1.8 1.8,2.9 1.8,3 l -0.1,0.2 c -0.2,0.8 -0.5,1.2 -0.8,1.2 l 0,0 z m 6.8,-1.1 c -1.3,-0.4 -2.1,-1.1 -2.3,-2.3 l 0.2,0.1 c 0.8,0.5 1.5,1.1 2.2,1.9 l -0.1,0.3 0,0 z m -5.6,-0.8 -0.2,0 -1.7,-3.2 c 0.3,-0.9 -0.2,-1.7 -1.4,-2.2 l -2.5,-3.6 c 0.3,-0.6 0.5,-1.2 0.6,-1.7 1.1,1.4 1.6,2.2 1.5,2.4 l 0.4,0.1 -0.2,0.9 c -0.1,0.2 0.6,0.9 2,2 1.2,2.1 1.9,3.2 2,3.2 l -0.4,0.9 -0.1,1.2 0,0 z m 11,0 -0.3,-0.2 -1.4,-0.4 c 0.1,-0.3 0,-0.6 -0.3,-1 0.1,0 0.2,0 0.2,-0.1 l 0.8,0.4 0.2,0 c 0.1,-0.3 0.3,-0.5 0.5,-0.4 0,0.1 0.2,0.7 0.6,1.6 -0.2,0 -0.3,0 -0.3,0.1 l 0,0 z m -0.3,-3.1 c -0.5,-0.2 -1,-0.8 -1.5,-1.9 0.7,0.4 1.4,0.7 2,0.9 0,-0.1 0.1,-0.2 0.2,-0.1 0.8,1.6 1.3,2.7 1.5,3.3 -0.3,0.4 -0.7,0.7 -1.2,0.8 -0.7,-1.1 -1,-2.1 -1,-3 z m -7.5,2.7 c -1.7,-0.8 -2.5,-1.5 -2.4,-1.9 l 0.4,-0.1 0.7,0.2 c 0.6,0.1 1.1,0.8 1.5,1.8 l -0.2,0 z m 5.6,-0.5 c -1.7,-0.5 -2.8,-1.6 -3.2,-3.4 -0.3,-0.1 -0.8,-0.9 -1.5,-2.3 l 0.5,-1.8 c 1.4,1.8 2,2.9 1.9,3.4 -0.1,0.1 -0.2,0.4 -0.5,1 -0.1,0.4 0.3,0.9 1.3,1.4 1,0.6 1.6,1.1 1.6,1.5 l -0.1,0.2 0,0 z m -12.1,-0.5 0.8,-2.9 0.3,0.1 -0.8,3.2 c -0.3,-0.1 -0.3,-0.2 -0.3,-0.4 z m -3.6,-3 0.5,-1.7 c 0.5,0.5 1.1,1.4 1.8,2.9 l -0.5,1.7 c -0.2,-0.1 -0.8,-1 -1.8,-2.9 z m 18.4,-0.2 0.2,-0.3 0.2,-0.5 0,-0.9 -1,-0.3 c -0.6,-0.1 -1,-0.5 -1.1,-1.2 l 1.8,0.5 c 0.7,0.9 1.4,2.2 2.1,3.9 l -0.5,1.8 c -0.2,0 -0.8,-1 -1.7,-3 z m -2.5,3 c 0,-0.1 -0.1,-0.1 -0.1,-0.2 l 0.2,0.1 -0.1,0.1 0,0 z m -2.6,-0.3 -0.2,-0.1 -0.3,-0.2 c -0.6,0 -1.1,0 -1.5,-0.1 0.1,-0.1 -0.3,-0.8 -1.1,-1.9 l 0.3,-0.3 0.3,-1.4 0.2,0.1 c 1.4,2.4 2.2,3.7 2.3,3.7 l 0,0.2 0,0 z m -2.5,-0.5 -0.8,-0.4 0.2,-0.7 c 0.3,0.5 0.5,0.7 0.7,0.8 l -0.1,0.3 0,0 z m -3.4,-0.2 -1.9,-3.2 0.5,-1 c -0.1,-0.2 -0.1,-0.5 0,-0.7 1.3,1.4 1.8,2.6 1.6,3.5 0,0.1 -0.1,0.6 -0.2,1.4 l 0,0 z m 5.8,-3.9 c -1,-1.4 -1.4,-2.2 -1.3,-2.6 l -0.2,0 0.4,-0.8 0.2,-0.5 -0.1,-0.4 0.1,0 c 1.2,1.7 1.7,2.8 1.6,3.2 -0.1,0.3 -0.2,0.7 -0.2,1.4 l 0.3,0.1 c 1.1,0.3 1.9,1.1 2.5,2.5 -2.4,-1.3 -3.5,-2.3 -3.3,-2.9 z m -10.8,2.7 c -1.2,-1.8 -1.8,-2.8 -1.7,-3 -0.1,-0.2 -0.1,-0.4 0,-0.7 l 0.2,-1 c 0.3,0.1 1,1.1 2.2,3.1 l -0.7,1.6 0,0 z m 7.4,-0.2 -0.4,-0.1 c 0.5,-1.5 1.2,-3.7 2.3,-6.5 l 0.2,0.1 -0.1,0.3 c -0.2,0.4 -0.4,0.8 -0.5,1.2 l 0.2,0 -0.6,0.9 -0.1,0.9 c 0,0.2 -0.2,0.7 -0.6,1.7 l 0.1,0.4 c -0.3,0.4 -0.4,0.8 -0.5,1.1 l 0,0 z m 9.2,-3.1 c 0.3,-0.4 0.5,-1 0.7,-1.9 0.2,0.1 0.8,1.2 1.7,3.2 l -0.2,0.9 -0.4,0.8 -1.8,-3 z m -10.9,2 -0.2,-0.1 c -1.1,-1.7 -1.6,-2.8 -1.5,-3.2 0.2,-0.7 -0.6,-1.5 -2.3,-2.4 0.1,-0.1 -0.4,-0.9 -1.4,-2.2 0.3,-0.4 0.7,-0.5 1.2,-0.4 l 3.3,4.9 c 0.6,0.6 1,1.4 1.2,2.2 l -0.3,1.2 0,0 z m 31.7,-0.3 c -0.1,0 -0.2,0 -0.2,0 -0.2,0 -0.4,0 -0.5,-0.1 -0.1,-0.1 -0.2,-0.1 -0.3,-0.3 0,-0.1 -0.1,-0.2 -0.1,-0.3 0,-0.2 0,-0.4 0.2,-0.6 0.1,-0.2 0.3,-0.4 0.6,-0.6 -0.3,0 -0.6,-0.1 -0.8,-0.2 -0.1,-0.1 -0.2,-0.3 -0.3,-0.5 0,-0.3 0.1,-0.5 0.2,-0.7 0.1,-0.2 0.4,-0.4 0.7,-0.6 l -0.6,0.1 c -0.1,0 -0.2,0 -0.3,0 0,-0.1 0,-0.1 0,-0.3 l -0.2,-0.7 c 0,-0.1 0,-0.1 0,-0.2 0.1,0 0.1,0 0.1,-0.1 0,0 0.1,0 0.1,0 0.1,-0.1 0.2,-0.1 0.3,-0.1 0.1,0 0.1,0 0.2,0 0.1,0 0.1,0 0.1,0 0.1,0.1 0.1,0.1 0.1,0.1 0,0.1 0,0.1 0.1,0.1 l 0,0.3 2.9,-0.4 c 0.1,0 0.2,0 0.3,0 0,0.1 0,0.2 0.1,0.3 l 0,0.5 c 0,0.1 0,0.2 0,0.2 0,0.1 -0.1,0.1 -0.2,0.1 l -1.5,0.2 c -0.5,0.1 -0.8,0.2 -1,0.3 -0.2,0.1 -0.3,0.2 -0.3,0.4 0.1,0.1 0.1,0.1 0.2,0.1 0.1,0.1 0.2,0.1 0.3,0 l 2.4,-0.3 c 0.1,0 0.2,0 0.2,0 0.1,0.1 0.1,0.2 0.1,0.3 l 0.1,0.5 c 0,0.1 0,0.2 -0.1,0.2 0,0.1 -0.1,0.1 -0.2,0.1 l -1.5,0.2 c -0.4,0.1 -0.7,0.2 -0.9,0.3 -0.2,0.1 -0.3,0.2 -0.3,0.4 0,0.1 0,0.1 0.1,0.1 0.1,0.1 0.2,0.1 0.4,0.1 l 2.3,-0.4 c 0.1,0 0.2,0 0.3,0.1 0,0 0,0.1 0.1,0.2 l 0,0.5 c 0,0.1 0,0.2 0,0.3 0,0 -0.1,0 -0.2,0 l -2.6,0.4 c -0.1,0 -0.3,0 -0.4,0 l 0,0 z m -18.3,-1.3 -0.2,0 c 0.1,-0.2 -0.2,-0.9 -0.9,-1.9 -0.7,-1.4 -1.3,-2.2 -1.7,-2.5 0.4,-0.7 0.8,-1 1.1,-1 l 0.2,0.1 1.1,1.9 0.3,0.1 0,0.2 c 0,0.1 0.2,0.6 0.8,1.3 -0.1,0.1 -0.2,0.3 -0.3,0.5 l -0.1,0.9 c -0.2,0.1 -0.3,0.3 -0.3,0.4 l 0,0 z m -0.1,-3.3 c -0.7,-1.4 -1,-2.1 -1,-2.3 0.7,0.1 1,0.1 1.1,0.1 1,0.3 1.3,1.3 0.8,3 l 0,0.2 -0.7,-0.9 -0.2,-0.1 0,0 z m -4.9,2.9 c -1.6,-0.4 -2.6,-1.1 -2.8,-2 -0.8,-1.3 -1.3,-2 -1.2,-2.2 0.1,-0.2 0.3,-0.3 0.3,-0.5 l -0.2,0 c 0.1,-0.3 0.4,-0.4 1,-0.3 l -0.1,-0.4 1.3,0.2 c 0.3,0.3 0.5,0.5 0.7,0.5 l -0.1,0.4 -0.4,0.8 -0.1,0 c -0.5,-0.9 -0.8,-1.4 -1,-1.4 l -0.3,-0.1 c 1.1,1.5 1.5,2.6 1.3,3.3 1.2,0.7 1.7,1.2 1.6,1.7 l 0,0 z m -8,-0.1 c -1.1,-1.6 -1.9,-2.7 -2.2,-3.4 -0.2,0 -0.4,-0.3 -0.5,-0.9 l 0.3,0.3 0.8,0.2 0.2,-0.6 0.2,0 c 1.1,1.7 1.7,2.5 1.8,2.5 l -0.2,1 -0.4,0.9 0,0 z m -3,-1.4 0.2,-0.7 c 0.3,0.1 0.3,0.2 0.3,0.5 l -0.2,0.7 C 47.1,104.7 47,104.5 47,104.3 Z m -3.6,-2.6 0.2,-1 c 0.1,-0.2 0.3,-0.3 0.5,-0.3 0.9,1.4 1.5,2.1 1.8,2.1 -0.3,0.6 -0.5,1.3 -0.7,1.9 -1.3,-1.7 -1.9,-2.6 -1.8,-2.7 z m 7.5,2 c -1.2,-1.6 -1.7,-2.5 -1.7,-2.6 l 0,-0.2 c 0.5,0.1 0.8,0 0.8,-0.2 1,0.6 1.4,1 1.3,1.3 l -0.4,1.7 0,0 z M 80,101.9 c -0.2,-0.1 -0.4,-0.3 -0.6,-0.5 -0.2,-0.3 -0.4,-0.6 -0.5,-0.9 -0.1,-0.3 -0.1,-0.6 -0.1,-0.9 0,-0.3 0.1,-0.6 0.2,-0.9 0.1,-0.2 0.3,-0.4 0.6,-0.6 0.2,-0.2 0.4,-0.3 0.7,-0.4 0.3,-0.1 0.6,-0.2 0.9,-0.1 0.3,0 0.6,0.1 0.8,0.2 0.3,0.1 0.5,0.3 0.7,0.5 0.2,0.3 0.3,0.6 0.4,0.9 0.1,0.3 0.2,0.7 0.1,1 0,0.3 -0.1,0.5 -0.2,0.8 -0.1,0.2 -0.3,0.4 -0.5,0.6 -0.2,0.2 -0.5,0.4 -0.8,0.5 -0.3,0 -0.6,0.1 -0.9,0.1 -0.3,-0.1 -0.5,-0.1 -0.8,-0.3 z m 0.9,-0.9 c 0.1,0 0.3,-0.1 0.4,-0.1 0.2,-0.1 0.4,-0.1 0.5,-0.2 0.1,-0.1 0.2,-0.2 0.3,-0.3 0,-0.2 0.1,-0.3 0.1,-0.4 0,-0.2 0,-0.3 -0.1,-0.5 0,-0.2 -0.1,-0.3 -0.2,-0.4 -0.1,-0.1 -0.2,-0.2 -0.3,-0.3 -0.1,0 -0.3,0 -0.4,0 -0.2,0 -0.3,0 -0.5,0 -0.2,0.1 -0.3,0.1 -0.4,0.2 -0.2,0.1 -0.3,0.2 -0.3,0.4 -0.1,0.1 -0.1,0.2 -0.1,0.3 -0.1,0.2 0,0.4 0,0.5 0.1,0.2 0.1,0.3 0.2,0.4 0.1,0.1 0.2,0.2 0.4,0.3 0.1,0 0.2,0 0.4,0.1 l 0,0 z m -34.5,-0.5 c -0.1,-0.1 -0.3,-0.3 -0.5,-0.9 l 0.5,0.2 0,0.7 z m 31.8,-2.7 c -0.1,0 -0.1,0 -0.2,-0.1 0,0 0,0 -0.1,-0.1 0,0 -0.1,-0.1 -0.1,-0.2 -0.1,-0.1 -0.1,-0.3 -0.1,-0.4 0,-0.1 0,-0.1 0.1,-0.2 L 78,96.7 c -0.2,0 -0.4,-0.1 -0.5,-0.2 -0.2,-0.1 -0.3,-0.3 -0.4,-0.5 -0.2,-0.3 -0.2,-0.5 -0.3,-0.8 0,-0.3 0,-0.6 0.1,-0.8 0.1,-0.3 0.2,-0.5 0.4,-0.8 0.2,-0.2 0.4,-0.4 0.7,-0.5 0.3,-0.2 0.6,-0.2 0.9,-0.3 0.3,0 0.5,0 0.8,0.1 0.3,0.1 0.5,0.3 0.8,0.5 0.2,0.2 0.4,0.4 0.5,0.7 0.2,0.3 0.3,0.6 0.3,0.9 0.1,0.4 0.1,0.7 0.1,1 0,0.1 0,0.2 -0.1,0.2 -0.1,0.1 -0.2,0.2 -0.4,0.2 -0.2,0 -0.3,0 -0.4,-0.1 -0.1,-0.1 -0.1,-0.1 -0.1,-0.2 0,-0.3 0,-0.6 0,-0.8 -0.1,-0.3 -0.2,-0.5 -0.3,-0.7 -0.1,-0.1 -0.2,-0.3 -0.3,-0.4 -0.1,0 -0.2,-0.1 -0.3,-0.2 -0.2,0 -0.3,0 -0.4,0 -0.2,0 -0.3,0.1 -0.5,0.2 -0.2,0.1 -0.3,0.1 -0.4,0.3 -0.1,0.1 -0.2,0.2 -0.2,0.3 -0.1,0.2 -0.1,0.3 -0.1,0.4 0,0.2 0.1,0.3 0.1,0.5 0.1,0.1 0.2,0.2 0.3,0.3 0,0 0.1,0.1 0.2,0.1 0.1,0 0.2,0 0.3,0 0.1,0 0.2,0 0.3,0 0,-0.1 0,-0.1 0.1,-0.1 0,0 0.1,0 0.1,0 0,0.1 0.1,0.1 0.1,0.2 0.1,0 0.1,0.1 0.2,0.2 0.1,0.2 0.1,0.3 0.1,0.4 0,0.1 0,0.2 -0.1,0.3 l -1.3,0.6 c -0.1,0.1 -0.1,0.1 -0.1,0.1 l 0,0 z m -1.1,-7 c -0.1,0 -0.2,0 -0.3,-0.1 -0.1,0 -0.2,-0.1 -0.3,-0.2 -0.1,-0.1 -0.1,-0.2 -0.1,-0.4 -0.1,-0.1 -0.1,-0.2 -0.1,-0.3 0,-0.1 0.1,-0.2 0.2,-0.4 0,-0.1 0.1,-0.2 0.2,-0.2 0.1,-0.1 0.2,-0.2 0.3,-0.2 0.2,0 0.3,0 0.4,0 0.1,0 0.2,0 0.3,0.1 0.1,0.1 0.2,0.1 0.3,0.2 0.1,0.1 0.1,0.3 0.2,0.4 0,0.1 0,0.2 0,0.3 0,0.1 -0.1,0.3 -0.1,0.4 -0.1,0.1 -0.2,0.2 -0.3,0.2 -0.1,0.1 -0.2,0.2 -0.3,0.2 -0.1,0.1 -0.2,0.1 -0.4,0 l 0,0 z M 30.5,89.9 c -0.3,0 -0.5,-0.1 -0.8,-0.2 -0.3,-0.1 -0.5,-0.3 -0.8,-0.5 -0.2,-0.2 -0.4,-0.5 -0.5,-0.7 -0.1,-0.3 -0.2,-0.6 -0.2,-0.9 0.1,-0.2 0.1,-0.5 0.2,-0.8 0.2,-0.3 0.3,-0.5 0.6,-0.8 0.2,-0.2 0.5,-0.4 0.8,-0.6 0.2,-0.1 0.5,-0.2 0.8,-0.3 0.1,0 0.2,0 0.3,0 0.1,0.1 0.2,0.2 0.3,0.4 0,0.1 0.1,0.3 0,0.4 0,0.1 -0.1,0.1 -0.2,0.1 -0.2,0.1 -0.5,0.2 -0.7,0.3 -0.2,0.1 -0.4,0.3 -0.6,0.5 -0.1,0.1 -0.2,0.2 -0.2,0.3 -0.1,0.2 -0.1,0.3 -0.1,0.4 0,0.2 0,0.3 0.1,0.4 0.1,0.2 0.2,0.3 0.3,0.4 0.1,0.2 0.2,0.3 0.4,0.3 0.1,0.1 0.3,0.1 0.4,0.1 0.1,0 0.3,0 0.4,-0.1 0.1,0 0.3,-0.1 0.4,-0.2 0.1,-0.1 0.1,-0.2 0.2,-0.3 0,-0.1 0,-0.2 0,-0.3 0.1,-0.1 0,-0.2 0,-0.3 0,0 -0.1,-0.1 -0.2,-0.2 0,0 0,-0.1 0,-0.1 0,0 0,-0.1 0,-0.1 0,-0.1 0,-0.1 0,-0.2 0.1,0 0.1,-0.1 0.2,-0.2 0.2,-0.1 0.3,-0.2 0.4,-0.2 0.1,-0.1 0.2,-0.1 0.2,0 l 1.1,1 c 0,0.1 0,0.1 0,0.1 0.1,0.1 0.1,0.1 0,0.1 0,0.1 0,0.1 0,0.2 -0.1,0 -0.1,0.1 -0.2,0.2 -0.1,0.1 -0.2,0.2 -0.3,0.2 -0.1,0.1 -0.2,0 -0.3,0 l -0.1,-0.2 c 0,0.2 0,0.4 0,0.6 -0.1,0.1 -0.2,0.3 -0.4,0.5 -0.2,0.2 -0.4,0.4 -0.7,0.5 -0.3,0.1 -0.5,0.2 -0.8,0.2 l 0,0 z m 42.2,-0.7 c -0.2,0 -0.3,0 -0.4,-0.1 C 72,89 71.8,88.9 71.6,88.7 71.4,88.5 71.2,88.3 71.1,88 71,87.8 71,87.5 71.1,87.2 l -0.3,0.3 c 0,0 -0.1,0.1 -0.2,0.1 0,0 -0.1,0 -0.2,-0.1 l -0.7,-0.7 c -0.1,-0.1 -0.1,-0.1 -0.1,-0.2 0,0 -0.1,0 0,-0.1 0,0 0,0 0,-0.1 0.1,0 0.1,-0.1 0.2,-0.2 0,0 0.1,-0.1 0.1,-0.1 C 70,86 70,86 70.1,86 c 0,0 0.1,0 0.1,0 0,0 0.1,0 0.1,0.1 l 0.3,0.2 2.8,-3 -0.3,-0.2 C 73.1,83 73,83 73,83 c 0,-0.1 0,-0.1 0,-0.1 0,-0.1 0,-0.1 0.1,-0.2 0,0 0,-0.1 0.1,-0.2 0.1,0 0.1,-0.1 0.2,-0.1 0,-0.1 0.1,-0.1 0.1,-0.1 0,0 0.1,0 0.1,0 0.1,0 0.1,0.1 0.1,0.1 l 2,1.8 c 0,0 0,0.1 0,0.1 0.1,0 0.1,0.1 0.1,0.1 0,0 -0.1,0.1 -0.1,0.1 0,0.1 -0.1,0.2 -0.1,0.2 -0.1,0.1 -0.2,0.2 -0.2,0.2 -0.1,0 -0.1,0.1 -0.1,0.1 -0.1,0 -0.1,0 -0.2,-0.1 0,0 0,0 -0.1,0 l -0.8,-0.8 -0.9,1 c 0.2,0 0.4,0 0.6,0.1 0.2,0.1 0.4,0.2 0.6,0.4 0.2,0.2 0.3,0.4 0.5,0.6 0.1,0.3 0.1,0.5 0.1,0.8 0,0.2 -0.1,0.5 -0.2,0.7 -0.1,0.3 -0.2,0.5 -0.4,0.8 -0.3,0.2 -0.5,0.4 -0.7,0.5 -0.3,0.1 -0.5,0.2 -0.8,0.2 -0.1,0 -0.2,0 -0.3,0 l 0,0 z m -38,-0.4 c 0,0 -0.1,0 -0.1,0 0,0 -0.1,-0.1 -0.1,-0.1 -0.1,-0.1 -0.1,-0.1 -0.2,-0.2 0,-0.1 -0.1,-0.1 -0.1,-0.2 0,0 -0.1,-0.1 -0.1,-0.1 0,-0.1 0.1,-0.1 0.1,-0.1 0,-0.1 0,-0.1 0.1,-0.1 l 0.3,-0.3 -2.3,-3.3 -0.3,0.2 c -0.1,0 -0.1,0 -0.1,0 -0.1,0.1 -0.1,0.1 -0.1,0 -0.1,0 -0.1,0 -0.2,0 0,-0.1 -0.1,-0.1 -0.1,-0.2 -0.1,-0.1 -0.1,-0.2 -0.2,-0.2 0,-0.1 0,-0.1 0,-0.2 0,0 0,0 0,-0.1 0.1,0 0.1,0 0.1,-0.1 l 1.4,-1 c 0.1,0 0.1,0 0.1,0 0.1,0 0.1,0 0.1,0 0.1,0 0.1,0 0.2,0.1 0,0 0.1,0.1 0.1,0.2 0.1,0 0.1,0.1 0.1,0.2 0.1,0 0.1,0.1 0.1,0.1 0,0.1 0,0.1 0,0.1 -0.1,0 -0.1,0.1 -0.1,0.1 l -0.2,0.1 0.4,0.6 c 0.1,0.2 0.3,0.3 0.4,0.5 0.2,0.1 0.4,0.2 0.5,0.3 0.2,0 0.3,0 0.5,0 0.1,0 0.3,0 0.4,-0.1 0.1,-0.1 0.2,-0.2 0.2,-0.4 0,-0.1 -0.1,-0.3 -0.2,-0.5 l -1,-1.3 -0.1,0.1 C 34.2,83 34.2,83 34.2,83 c -0.1,0 -0.1,0 -0.2,0 0,0 0,0 -0.1,-0.1 0,0 -0.1,-0.1 -0.1,-0.2 -0.1,0 -0.1,-0.1 -0.2,-0.2 0,0 0,-0.1 0,-0.1 0,0 0,-0.1 0,-0.1 0.1,0 0.1,-0.1 0.1,-0.1 l 1.4,-1 c 0.1,0 0.1,0 0.1,0 0.1,-0.1 0.1,-0.1 0.1,0 0.1,0 0.1,0 0.2,0 0,0.1 0.1,0.1 0.1,0.2 0.1,0.1 0.1,0.2 0.1,0.2 0.1,0.1 0.1,0.1 0.1,0.2 0,0 0,0.1 0,0.1 -0.1,0 -0.1,0 -0.2,0.1 l -0.2,0.2 1.1,1.5 c 0.1,0.2 0.2,0.4 0.2,0.6 0.1,0.1 0.1,0.3 0.1,0.5 0,0.2 -0.1,0.3 -0.2,0.5 -0.1,0.1 -0.2,0.3 -0.4,0.4 -0.2,0.1 -0.4,0.2 -0.7,0.2 -0.2,0.1 -0.5,0 -0.8,-0.1 l 1.2,1.8 c 0.1,0.1 0.1,0.1 0.1,0.2 0,0.1 -0.1,0.1 -0.1,0.2 l -1.1,0.7 c 0,0 -0.1,0.1 -0.1,0.1 l 0,0 z M 72.8,88 c 0.3,0 0.5,-0.1 0.8,-0.4 0.2,-0.2 0.3,-0.5 0.3,-0.7 0,-0.3 -0.1,-0.5 -0.3,-0.7 C 73.5,86.1 73.4,86 73.3,86 73.2,85.9 73,85.9 72.9,85.9 c -0.1,0 -0.2,0 -0.4,0.1 -0.1,0.1 -0.2,0.2 -0.4,0.3 -0.1,0.1 -0.2,0.3 -0.2,0.4 -0.1,0.1 -0.1,0.3 -0.1,0.4 0,0.1 0,0.3 0.1,0.4 0.1,0.1 0.2,0.2 0.3,0.3 0.1,0.1 0.3,0.2 0.5,0.2 0,0.1 0.1,0.1 0.1,0 z m -4,-2.1 c -0.1,0 -0.3,-0.1 -0.4,-0.1 -0.3,0 -0.6,-0.2 -0.9,-0.4 C 67.2,85.2 67,85 66.8,84.8 66.6,84.5 66.5,84.3 66.4,84 c 0,-0.3 0,-0.6 0,-0.8 0.1,-0.3 0.2,-0.6 0.4,-0.9 0.1,-0.2 0.4,-0.4 0.6,-0.6 0.2,-0.2 0.5,-0.3 0.8,-0.3 0.2,-0.1 0.5,-0.1 0.8,0 0.3,0.1 0.6,0.2 0.9,0.4 0.3,0.2 0.5,0.4 0.7,0.6 0.2,0.3 0.3,0.5 0.4,0.8 0,0.3 0,0.5 0,0.8 -0.1,0.3 -0.2,0.6 -0.4,0.9 -0.2,0.2 -0.4,0.4 -0.6,0.6 -0.2,0.2 -0.5,0.3 -0.8,0.3 -0.1,0.1 -0.2,0.1 -0.4,0.1 l 0,0 z M 40.3,85.5 c 0,0 -0.1,0 -0.1,0 0,-0.1 0,-0.1 -0.1,-0.2 l -0.3,-0.6 c 0,-0.1 0,-0.2 0,-0.3 0.1,-0.1 0.2,-0.1 0.4,-0.2 0.2,-0.1 0.4,-0.2 0.4,-0.2 0.1,0.1 0.2,0.1 0.2,0.2 l 0.4,0.7 c 0,0.1 0,0.1 -0.1,0.2 0,0.1 -0.1,0.2 -0.3,0.3 -0.1,0 -0.2,0 -0.3,0.1 -0.1,0 -0.1,0 -0.2,0 l 0,0 z m 28.4,-0.7 c 0.1,0 0.1,0 0.2,-0.1 0.1,0 0.3,-0.1 0.4,-0.2 0.1,0 0.2,-0.2 0.3,-0.3 0.1,-0.2 0.2,-0.3 0.2,-0.5 0,-0.1 0,-0.2 0,-0.4 0,-0.1 -0.1,-0.2 -0.1,-0.4 -0.1,-0.1 -0.2,-0.2 -0.4,-0.3 -0.1,-0.1 -0.2,-0.1 -0.4,-0.1 -0.1,-0.1 -0.3,-0.1 -0.4,0 -0.1,0 -0.3,0.1 -0.4,0.1 -0.1,0.1 -0.2,0.3 -0.3,0.4 -0.1,0.1 -0.2,0.3 -0.2,0.4 0,0.2 -0.1,0.3 0,0.5 0,0.1 0,0.2 0.1,0.4 0.1,0.1 0.2,0.2 0.4,0.3 0.1,0.1 0.2,0.1 0.4,0.2 0,0 0.1,0 0.2,0 l 0,0 z m -6.9,-0.5 c 0,0 -0.1,0 -0.1,0 l -1.2,-0.5 c 0,-0.1 -0.1,-0.1 -0.1,-0.1 0,0 0,-0.1 -0.1,-0.1 0,-0.1 0,-0.1 0,-0.2 0.1,0 0.1,-0.1 0.1,-0.2 0.1,-0.1 0.1,-0.1 0.1,-0.2 0.1,0 0.1,-0.1 0.1,-0.1 0.1,0 0.1,0 0.2,0 0,0 0,0 0.1,0 l 0.4,0.2 1.6,-3.8 -0.3,-0.1 c -0.1,0 -0.1,-0.1 -0.1,-0.1 -0.1,0 -0.1,0 -0.1,-0.1 0,0 0,-0.1 0,-0.1 0,-0.1 0.1,-0.2 0.1,-0.3 0,0 0.1,-0.1 0.1,-0.2 0,0 0.1,-0.1 0.1,-0.1 0.1,0 0.1,0 0.1,0 0.1,0 0.1,0 0.1,0 l 1.6,0.7 c 0.1,0 0.1,0.1 0.1,0.1 0,0 0.1,0 0.1,0.1 0,0 0,0.1 0,0.1 0,0.1 -0.1,0.2 -0.1,0.2 -0.1,0.1 -0.1,0.2 -0.1,0.3 -0.1,0 -0.1,0 -0.1,0.1 -0.1,0 -0.1,0 -0.1,0 -0.1,0 -0.1,0 -0.2,0 l -0.2,-0.1 -0.3,0.7 c 0,0.1 -0.1,0.4 -0.1,0.6 0,0.2 0,0.3 0,0.5 0,0.2 0.1,0.3 0.1,0.4 0.1,0.2 0.2,0.3 0.4,0.3 0.1,0.1 0.3,0.1 0.4,0 0.1,-0.1 0.2,-0.2 0.3,-0.4 l 0.7,-1.5 -0.2,-0.1 c -0.1,0 -0.1,0 -0.1,-0.1 -0.1,0 -0.1,0 -0.1,-0.1 0,0 0,0 0,-0.1 0,-0.1 0.1,-0.1 0.1,-0.2 0,-0.1 0.1,-0.2 0.1,-0.2 0,-0.1 0.1,-0.1 0.1,-0.2 0,0 0.1,0 0.1,0 0,0 0.1,0 0.1,0.1 l 1.6,0.6 c 0,0.1 0.1,0.1 0.1,0.1 0,0 0,0.1 0.1,0.1 0,0 0,0.1 0,0.2 -0.1,0 -0.1,0.1 -0.1,0.2 -0.1,0.1 -0.1,0.1 -0.1,0.2 -0.1,0 -0.1,0.1 -0.2,0.1 0,0 0,0 -0.1,0 0,0 0,0 -0.1,0 l -0.3,-0.2 -0.7,1.8 c -0.1,0.2 -0.2,0.3 -0.4,0.5 -0.1,0.1 -0.3,0.2 -0.4,0.3 -0.2,0.1 -0.4,0.1 -0.5,0.1 -0.2,0 -0.4,0 -0.6,-0.1 -0.2,-0.1 -0.4,-0.3 -0.6,-0.5 -0.1,-0.2 -0.2,-0.5 -0.3,-0.8 l -0.8,2 c -0.1,0.1 -0.1,0.2 -0.2,0.2 0,0 0,0 -0.1,0 l 0,0 z M 38.4,84.2 c 0,0 0,-0.1 -0.1,-0.1 0,0 0,0 -0.1,-0.1 0,0 0,-0.1 -0.1,-0.2 0,-0.1 -0.1,-0.2 -0.1,-0.2 0,-0.1 0,-0.1 0,-0.2 0,0 0,0 0.1,-0.1 0,0 0,0 0.1,0 l 0.8,-0.4 -1,-2.1 -1.2,0.5 c 0,0 -0.1,0.1 -0.1,0.1 0,0 -0.1,0 -0.1,-0.1 0,0 -0.1,0 -0.1,-0.1 0,0 -0.1,-0.1 -0.1,-0.2 -0.1,-0.1 -0.1,-0.1 -0.1,-0.2 0,-0.1 0,-0.1 0,-0.1 0,-0.1 0,-0.1 0,-0.1 0.1,-0.1 0.1,-0.1 0.1,-0.1 l 3.3,-1.6 c 0.1,0 0.1,0 0.1,0 0.1,0 0.1,0 0.2,0 0,0 0,0 0.1,0.1 0,0 0,0.1 0.1,0.2 0,0.1 0.1,0.2 0.1,0.2 0,0.1 0,0.1 0,0.2 0,0 0,0 -0.1,0.1 0,0 0,0 -0.1,0.1 L 39,80.3 40.3,83 c 0,0.1 0,0.2 0,0.2 0,0.1 -0.1,0.1 -0.2,0.2 l -1.5,0.7 c -0.1,0 -0.1,0 -0.2,0.1 l 0,0 z m 3.7,-1.8 c -0.1,0 -0.1,0 -0.1,0 -0.1,0 -0.1,-0.1 -0.1,-0.1 -0.1,-0.1 -0.1,-0.2 -0.1,-0.3 0,0 -0.1,-0.1 -0.1,-0.2 0,0 0,-0.1 0,-0.1 0.1,-0.1 0.1,-0.1 0.1,-0.1 0,-0.1 0.1,-0.1 0.1,-0.1 l 0.5,-0.1 -0.7,-2.2 -0.3,0 c -0.1,0.1 -0.1,0.1 -0.1,0.1 -0.1,0 -0.1,0 -0.1,-0.1 -0.1,0 -0.1,0 -0.1,-0.1 C 41,79.1 41,79 41,78.9 c 0,-0.1 0,-0.2 -0.1,-0.3 0,0 0,-0.1 0,-0.1 0.1,0 0.1,-0.1 0.1,-0.1 0,0 0.1,0 0.1,0 l 1.7,-0.5 c 0,0 0.1,0 0.1,0 0,0 0.1,0 0.1,0 0,0 0.1,0.1 0.1,0.1 0,0.1 0,0.2 0.1,0.3 0,0.1 0,0.1 0,0.2 0,0.1 0,0.1 0,0.1 0,0.1 0,0.1 -0.1,0.1 0,0.1 0,0.1 -0.1,0.1 l -0.2,0.1 0.2,0.7 c 0.1,0.2 0.2,0.3 0.3,0.5 0.1,0.2 0.2,0.3 0.3,0.5 0.1,0.1 0.3,0.1 0.4,0.2 0.2,0 0.3,0 0.4,0 0.2,0 0.3,-0.1 0.4,-0.3 0,-0.1 0,-0.3 -0.1,-0.5 l -0.4,-1.6 -0.2,0.1 c -0.1,0 -0.1,0 -0.1,0 -0.1,0 -0.1,0 -0.1,0 -0.1,-0.1 -0.1,-0.1 -0.1,-0.2 0,0 -0.1,-0.1 -0.1,-0.2 0,-0.1 0,-0.2 0,-0.2 -0.1,-0.1 -0.1,-0.1 0,-0.2 0,0 0,0 0,0 0.1,-0.1 0.1,-0.1 0.1,-0.1 l 1.7,-0.5 c 0,0 0.1,0 0.1,0 0.1,0 0.1,0 0.1,0.1 0,0 0.1,0 0.1,0.1 0,0 0.1,0.1 0.1,0.2 0,0.1 0,0.2 0,0.2 0,0.1 0,0.1 0,0.2 0,0 0,0.1 -0.1,0.1 0,0 0,0 -0.1,0 l -0.3,0.1 0.5,1.8 c 0.1,0.3 0.1,0.4 0.1,0.6 0,0.2 -0.1,0.4 -0.2,0.6 0,0.1 -0.1,0.2 -0.3,0.4 -0.1,0.1 -0.3,0.2 -0.5,0.2 -0.3,0.1 -0.6,0.1 -0.9,0 -0.2,-0.1 -0.5,-0.3 -0.8,-0.6 l 0.2,0.7 c 0,0.1 0,0.1 -0.1,0.2 0,0 -0.1,0.1 -0.2,0.1 l -1,0.3 c -0.1,0 -0.1,0 -0.1,0 l 0,0 z M 60.2,82 c 0,0 -0.1,-0.1 -0.2,-0.1 -0.2,0 -0.3,-0.1 -0.4,-0.1 -0.1,-0.1 -0.1,-0.2 -0.1,-0.3 l 0.1,0 c -0.2,0 -0.4,0.1 -0.6,0.1 -0.2,0 -0.5,0 -0.7,-0.1 -0.2,0 -0.4,-0.1 -0.6,-0.2 -0.2,-0.1 -0.3,-0.2 -0.5,-0.4 -0.1,-0.1 -0.2,-0.3 -0.2,-0.5 0,-0.1 0,-0.3 0,-0.5 0.1,-0.3 0.2,-0.5 0.4,-0.6 0.1,-0.2 0.3,-0.3 0.5,-0.3 0.1,-0.1 0.3,-0.1 0.5,-0.1 0.2,0 0.3,0 0.5,0 0.2,0 0.3,0 0.5,0.1 0.2,0 0.3,0 0.4,0 0.2,0 0.3,0 0.3,0 0.1,-0.1 0.2,-0.1 0.2,-0.2 0,-0.1 0,-0.2 -0.1,-0.3 -0.1,-0.1 -0.3,-0.2 -0.5,-0.2 -0.3,-0.1 -0.5,-0.1 -0.8,-0.1 -0.2,0 -0.5,0.1 -0.7,0.3 0,0 -0.1,0.1 -0.1,0.1 -0.1,0 -0.2,-0.1 -0.3,-0.1 -0.1,0 -0.2,-0.1 -0.3,-0.1 0,-0.1 0,-0.2 0,-0.2 l 0.2,-1 c 0,-0.1 0.1,-0.2 0.2,-0.2 0.1,0 0.2,0 0.4,0 0.2,0.1 0.3,0.1 0.4,0.2 0.1,0 0.1,0.1 0.1,0.2 l 0,0.1 c 0.2,-0.1 0.3,-0.1 0.5,-0.1 0.2,-0.1 0.4,0 0.7,0 0.3,0.1 0.5,0.2 0.7,0.3 0.2,0.1 0.4,0.2 0.5,0.4 0.1,0.2 0.2,0.3 0.2,0.5 0.1,0.2 0,0.4 0,0.6 0,0.1 -0.1,0.3 -0.2,0.4 0,0.1 -0.1,0.2 -0.2,0.3 -0.1,0 -0.2,0.1 -0.3,0.1 -0.1,0.1 -0.2,0.1 -0.3,0.1 -0.2,0 -0.3,0 -0.5,0 -0.2,0 -0.3,0 -0.5,0 -0.2,0 -0.3,-0.1 -0.5,-0.1 -0.1,0 -0.3,0 -0.4,0 -0.1,0 -0.2,0 -0.2,0 -0.1,0.1 -0.2,0.1 -0.2,0.2 0,0.1 0,0.2 0.1,0.3 0.1,0.1 0.2,0.1 0.4,0.2 0.3,0 0.5,0.1 0.8,0 0.2,0 0.5,-0.1 0.7,-0.2 0.1,-0.1 0.2,-0.1 0.4,0 0.1,0 0.2,0.1 0.2,0.1 0.1,0.1 0.1,0.1 0.1,0.2 l -0.2,1 c -0.1,0.1 -0.1,0.1 -0.2,0.2 0,0 -0.1,0 -0.2,0 l 0,0 z M 48.3,81 c -0.1,0 -0.3,0 -0.4,-0.1 -0.2,0 -0.5,-0.2 -0.7,-0.3 -0.2,-0.2 -0.3,-0.4 -0.4,-0.6 -0.1,-0.3 -0.2,-0.6 -0.2,-0.9 -0.1,-0.3 -0.1,-0.6 0,-0.8 0.1,-0.3 0.2,-0.5 0.3,-0.8 0.2,-0.2 0.4,-0.3 0.6,-0.4 0.2,-0.2 0.5,-0.3 0.8,-0.3 0.2,0 0.4,0 0.6,0.1 0.3,0 0.4,0.1 0.6,0.3 l 0,-0.5 C 49.4,76.4 49.3,76.2 49.2,76.1 49,75.9 48.7,75.9 48.4,75.9 48.2,75.9 48,76 47.8,76 c -0.3,0.1 -0.5,0.2 -0.7,0.2 0,0.1 -0.1,0.1 -0.1,0.1 0,0 -0.1,0 -0.1,0 -0.1,-0.1 -0.1,-0.1 -0.2,-0.2 0,0 0,-0.1 -0.1,-0.2 0,-0.1 -0.1,-0.3 0,-0.4 0,-0.1 0,-0.1 0.1,-0.2 0.3,-0.1 0.6,-0.2 0.9,-0.3 0.2,-0.1 0.5,-0.1 0.7,-0.1 0.3,-0.1 0.7,0 0.9,0 0.3,0.1 0.5,0.2 0.7,0.3 0.2,0.2 0.4,0.3 0.5,0.5 0.1,0.3 0.1,0.5 0.2,0.8 l 0.3,3.3 0.4,-0.1 c 0.1,0 0.1,0 0.1,0 0.1,0 0.1,0 0.1,0.1 0.1,0 0.1,0.1 0.1,0.1 0,0.1 0,0.2 0,0.3 0,0 0.1,0.1 0.1,0.2 0,0 -0.1,0.1 -0.1,0.1 0,0.1 0,0.1 -0.1,0.1 0,0 0,0 -0.1,0 l -1,0.2 c -0.1,0 -0.2,0 -0.3,-0.1 0,0 0,-0.1 -0.1,-0.2 l 0,-0.3 c -0.1,0.2 -0.3,0.4 -0.5,0.6 -0.2,0.1 -0.5,0.2 -0.8,0.2 -0.1,0.1 -0.3,0 -0.4,0 l 0,0 z m 0.3,-1 c 0.1,0 0.1,0 0.2,0 0.1,0 0.3,-0.1 0.4,-0.1 0.1,-0.1 0.2,-0.2 0.3,-0.3 0.1,-0.1 0.1,-0.2 0.2,-0.3 0,-0.2 0,-0.3 0,-0.5 0,-0.2 0,-0.4 -0.1,-0.5 -0.1,-0.1 -0.2,-0.2 -0.3,-0.3 -0.1,-0.1 -0.2,-0.1 -0.3,-0.2 -0.2,0 -0.3,0 -0.4,0 -0.3,0 -0.5,0.1 -0.7,0.4 -0.1,0.2 -0.2,0.4 -0.1,0.8 0,0.4 0.1,0.6 0.3,0.8 0.1,0.1 0.3,0.2 0.5,0.2 l 0,0 z m 7.1,-0.1 -3.4,-0.3 c -0.1,0 -0.1,0 -0.2,0 0,0 0,0 0,-0.1 -0.1,0 -0.1,-0.1 -0.1,-0.1 0,-0.1 0,-0.2 0,-0.3 0,-0.1 0,-0.2 0.1,-0.2 0,-0.1 0,-0.2 0,-0.2 0,0 0.1,-0.1 0.1,-0.1 0.1,0 0.1,0 0.1,0 l 3.5,0.3 c 0,0 0.1,0 0.1,0 0.1,0 0.1,0 0.1,0.1 0,0 0,0 0,0.1 0.1,0.1 0.1,0.2 0,0.3 0,0.1 0,0.2 0,0.2 0,0.1 0,0.2 -0.1,0.2 0,0 0,0 -0.1,0.1 0,0 0,0 -0.1,0 l 0,0 z"
                       inkscape:connector-curvature="0" /></g></g><g
                   id="g30"><g
                     id="g3372"
                     transform="matrix(3.3281224,0,0,3.3281224,-27.704656,-14.736758)"><g
                       id="g38"
                       transform="matrix(0.88017814,0,0,0.88017814,14.615428,15.054639)" /><g
                       id="g68"><path
                         inkscape:connector-curvature="0"
                         id="path70"
                         style="fill:none;stroke:#000000;stroke-width:1.39999998;stroke-linecap:butt;stroke-linejoin:round;stroke-miterlimit:10;stroke-dasharray:none;stroke-opacity:1"
                         d="m 141.7,33.9 -129.1,0 0,116.1 258.1,0 0,-116.1 -129,0 z" /></g><g
                       id="g72"><text
                         id="text74"
                         style="font-variant:normal;font-weight:normal;font-size:16px;font-family:'Libre Baskerville';-inkscape-font-specification:LibreBaskerville;writing-mode:lr-tb;fill:#000000;fill-opacity:1;fill-rule:nonzero;stroke:none"
                         transform="matrix(1,0,0,-1,58,12.7)"><tspan
                           id="tspan76"
                           y="0"
                           x="0 10.992 16.191999 25.296 34.175999 41.456001 50.560001 55.152 65.952003 76.431999 81.024002 92.015999 102.496 108.496 113.088 123.568 132.752 143.744 154.54401">Please do not bend.</tspan></text>
</g><g
                       id="g78"><text
                         id="text80"
                         style="font-variant:normal;font-weight:normal;font-size:9px;font-family:mononoki;-inkscape-font-specification:mononoki-Regular;writing-mode:lr-tb;fill:#000000;fill-opacity:1;fill-rule:nonzero;stroke:none"
                         transform="matrix(1,0,0,-1,96.1,157.6)"><tspan
                           id="tspan82"
                           y="0"
                           x="0 5.0040002 10.098 15.102 20.195999 25.200001 30.294001 35.298 40.391998 45.396 50.490002 55.493999 60.588001 65.592003 70.685997 75.690002 80.783997 85.788002">www.ching-shop.com</tspan></text>
</g><text
                       transform="scale(1,-1)"
                       sodipodi:linespacing="125%"
                       id="text3364"
                       y="-135.14163"
                       x="88.046875"
                       style="font-style:normal;font-weight:normal;font-size:18px;line-height:125%;font-family:sans-serif;letter-spacing:0px;word-spacing:0px;fill:#000000;fill-opacity:1;stroke:none;stroke-width:1px;stroke-linecap:butt;stroke-linejoin:miter;stroke-opacity:1"
                       xml:space="preserve"><tspan
                         id="tspan3366"
                         y="-135.14163"
                         x="88.046875"
                         sodipodi:role="line"><tspan
                           id="tspan3368"
                           style="font-size:11px"
                           y="-135.14163"
                           x="88.046875">##NAME##</tspan><tspan
                           id="tspan3370"
                           style="font-size:11px"
                           y="-135.14163"
                           x="152.38672"
                           dx="0" /></tspan><tspan
                         id="tspan3372"
                         y="-118.89164"
                         x="88.046875"
                         sodipodi:role="line"><tspan
                           id="tspan3374"
                           style="font-size:11px"
                           y="-118.89164"
                           x="88.046875">##LINE_ONE##</tspan><tspan
                           id="tspan3376"
                           style="font-size:11px"
                           y="-118.89164"
                           x="178.74219"
                           dx="0" /></tspan><tspan
                         id="tspan3378"
                         y="-102.64164"
                         x="88.046875"
                         sodipodi:role="line"><tspan
                           id="tspan3380"
                           style="font-size:11px"
                           y="-102.64164"
                           x="88.046875">##LINE_TWO##</tspan><tspan
                           id="tspan3382"
                           style="font-size:11px"
                           y="-102.64164"
                           x="180.82422"
                           dx="0" /></tspan><tspan
                         id="tspan3384"
                         y="-86.39164"
                         x="88.046875"
                         sodipodi:role="line"><tspan
                           id="tspan3386"
                           style="font-size:11px"
                           y="-86.39164"
                           x="88.046875">##CITY##</tspan><tspan
                           id="tspan3388"
                           style="font-size:11px"
                           y="-86.39164"
                           x="143.5"
                           dx="0" /></tspan><tspan
                         id="tspan3390"
                         y="-70.14164"
                         x="88.046875"
                         sodipodi:role="line"><tspan
                           id="tspan3392"
                           style="font-size:11px"
                           y="-70.14164"
                           x="88.046875">##POST_CODE##</tspan><tspan
                           id="tspan3394"
                           style="font-size:11px"
                           y="-70.14164"
                           x="191.4375"
                           dx="0" /></tspan><tspan
                         id="tspan3396"
                         y="-53.89164"
                         x="88.046875"
                         sodipodi:role="line"><tspan
                           id="tspan3398"
                           style="font-size:11px"
                           y="-53.89164"
                           x="88.046875">##COUNTRY_CODE##</tspan></tspan></text>
</g></g></g></g></g></g></g></g></g></svg>