<?xml version="1.0" encoding="iso-8859-1"?>
<!-- Generator: Adobe Illustrator 16.0.0, SVG Export Plug-In . SVG Version: 6.00 Build 0)  -->
<!DOCTYPE svg PUBLIC "-//W3C//DTD SVG 1.1//EN" "http://www.w3.org/Graphics/SVG/1.1/DTD/svg11.dtd">
<svg version="1.1" id="Capa_1" xmlns="http://www.w3.org/2000/svg" xmlns:xlink="http://www.w3.org/1999/xlink" x="0px" y="0px"
	 width="45.702px" height="45.702px" viewBox="0 0 45.702 45.702" style="enable-background:new 0 0 45.702 45.702;"
	 xml:space="preserve">
<g>
	<g>
		<path d="M3.945,8.086l0.379,0.371c1.329-1.485,3.058-2.65,5.19-3.304l-1.38-1.35L8.811,3.11c1.04-1.063,0.275-2.853-1.212-2.835
			L1.65,0.341C0.728,0.351-0.011,1.107,0,2.029l0.066,5.949c0.017,1.487,1.822,2.212,2.862,1.148L3.945,8.086z"/>
		<path d="M45.168,34.211l-1.229-1.201c-1.578-1.543-3.749-2.291-5.917-2.073c3.175-3.815,5.562-8.531,5.562-13.835
			c0-5.662-4.646-10.252-10.268-10.252c-4.786,0-8.865,3.327-9.972,7.811c-0.08,0.319-0.514,0.319-0.593,0
			c-1.109-4.483-5.194-7.811-9.979-7.811c-5.622,0-10.276,4.59-10.276,10.252c0,14.058,16.664,23.986,20.553,23.986
			c1.377,0,4.497-1.33,7.898-3.704c-3.097-3.144-8.658-8.791-11.651-11.831c-0.99-1.006-1.179-2.546-0.417-3.733
			c0.011-0.018,0.021-0.035,0.032-0.052c0.285-0.444,0.665-0.782,1.094-1.009c-0.693,1.174-0.505,2.676,0.477,3.636l11.208,10.959
			l-0.321,1.701c-0.458,2.432,0.33,4.934,2.099,6.663l1.229,1.202c1.011,0.988,2.715,0.452,2.977-0.938l0.537-2.854
			c1.164,0.272,2.457-0.158,3.203-1.286c0.422-0.638,0.548-1.394,0.419-2.113l2.466-0.521C45.681,36.916,46.18,35.2,45.168,34.211z
			 M7.302,22.583c-0.599,0-1.084-0.485-1.084-1.084s0.485-1.084,1.084-1.084c0.599,0,1.084,0.485,1.084,1.084
			S7.901,22.583,7.302,22.583z M12.034,12.056c-2.145,0.818-4.318,3.119-4.12,5.771c0.042,0.55-0.371,1.029-0.921,1.07
			C6.968,18.899,6.942,18.9,6.917,18.9c-0.518,0-0.956-0.399-0.995-0.924c-0.274-3.654,2.509-6.683,5.399-7.785
			c0.513-0.198,1.092,0.061,1.289,0.577C12.808,11.282,12.549,11.859,12.034,12.056z"/>
	</g>
</g>
<g>
</g>
<g>
</g>
<g>
</g>
<g>
</g>
<g>
</g>
<g>
</g>
<g>
</g>
<g>
</g>
<g>
</g>
<g>
</g>
<g>
</g>
<g>
</g>
<g>
</g>
<g>
</g>
<g>
</g>
</svg>
