<?xml version="1.0" encoding="iso-8859-1"?>
<!-- Generator: Adobe Illustrator 16.0.0, SVG Export Plug-In . SVG Version: 6.00 Build 0)  -->
<!DOCTYPE svg PUBLIC "-//W3C//DTD SVG 1.1//EN" "http://www.w3.org/Graphics/SVG/1.1/DTD/svg11.dtd">
<svg version="1.1" id="Capa_1" xmlns="http://www.w3.org/2000/svg" xmlns:xlink="http://www.w3.org/1999/xlink" x="0px" y="0px"
	 width="46.372px" height="46.373px" viewBox="0 0 46.372 46.373" style="enable-background:new 0 0 46.372 46.373;"
	 xml:space="preserve">
<g>
	<g>
		<path d="M42.616,21.595c0.264,2.075,1.791,3.76,3.754,4.251v-0.491C46.371,23.281,44.689,21.599,42.616,21.595z"/>
		<path d="M0,41.537c0,2.076,1.716,3.744,3.792,3.744h38.804c2.076,0,3.774-1.668,3.774-3.744v-2.693H0V41.537z"/>
		<path d="M11.016,26.002c2.536,0,4.634-1.89,4.95-4.398h-9.9C6.382,24.113,8.48,26.002,11.016,26.002z"/>
		<path d="M41.469,24.787c-1.271,2.042-3.529,3.402-6.093,3.402s-4.819-1.361-6.091-3.402c-1.271,2.042-3.526,3.402-6.09,3.402
			s-4.817-1.361-6.089-3.402c-1.272,2.042-3.525,3.402-6.089,3.402s-4.834-1.361-6.105-3.402c-1.07,1.717-2.837,2.951-4.911,3.3
			v4.319h46.371v-4.319C44.298,27.738,42.539,26.503,41.469,24.787z"/>
		<path d="M23.194,26.002c2.535,0,4.634-1.89,4.949-4.398h-9.897C18.56,24.113,20.658,26.002,23.194,26.002z"/>
		<path d="M3.754,21.595C1.681,21.599,0,23.281,0,25.355v0.492C1.964,25.355,3.49,23.67,3.754,21.595z"/>
		<path d="M35.372,26.002c2.536,0,4.634-1.89,4.95-4.398h-9.899C30.738,24.113,32.836,26.002,35.372,26.002z"/>
		<path d="M31.533,4.039c1.713,0,3.136-1.201,3.38-2.946h-6.761C28.396,2.837,29.818,4.039,31.533,4.039z"/>
		<path d="M14.856,4.039c1.714,0,3.137-1.201,3.381-2.946h-6.762C11.719,2.837,13.142,4.039,14.856,4.039z"/>
		<path d="M39.389,5.548c-1.527-0.163-2.885-1.043-3.668-2.301c-0.871,1.397-2.424,2.329-4.179,2.329s-3.304-0.932-4.174-2.329
			c-0.871,1.397-2.416,2.329-4.171,2.329c-1.755,0-3.299-0.932-4.17-2.329c-0.871,1.397-2.414,2.329-4.17,2.329
			c-1.755,0-3.325-0.932-4.196-2.329C9.876,4.505,8.62,5.385,6.983,5.548v4.164h32.406V5.548z"/>
		<path d="M23.194,4.039c1.714,0,3.137-1.201,3.38-2.946h-6.761C20.058,2.837,21.48,4.039,23.194,4.039z"/>
		<path d="M39.389,4.035V3.461c0-1.289-1.08-2.37-2.369-2.37h-0.528C36.71,2.621,37.859,3.807,39.389,4.035z"/>
		<path d="M9.369,18.332h27.65c1.289,0,2.369-1.013,2.369-2.302v-1.954H6.983v1.954C6.983,17.318,8.081,18.332,9.369,18.332z"/>
		<path d="M9.898,1.092H9.369c-1.289,0-2.386,1.081-2.386,2.37v0.572C8.51,3.807,9.679,2.621,9.898,1.092z"/>
	</g>
</g>
<g>
</g>
<g>
</g>
<g>
</g>
<g>
</g>
<g>
</g>
<g>
</g>
<g>
</g>
<g>
</g>
<g>
</g>
<g>
</g>
<g>
</g>
<g>
</g>
<g>
</g>
<g>
</g>
<g>
</g>
</svg>
