<?xml version="1.0" encoding="UTF-8" standalone="no"?>
<!-- Created with Inkscape (http://www.inkscape.org/) -->

<svg
   xmlns:dc="http://purl.org/dc/elements/1.1/"
   xmlns:cc="http://creativecommons.org/ns#"
   xmlns:rdf="http://www.w3.org/1999/02/22-rdf-syntax-ns#"
   xmlns:svg="http://www.w3.org/2000/svg"
   xmlns="http://www.w3.org/2000/svg"
   version="1.1"
   width="658.625"
   height="658.625"
   id="svg2">
  <defs
     id="defs4" />
  <metadata
     id="metadata7">
    <rdf:RDF>
      <cc:Work
         rdf:about="">
        <dc:format>image/svg+xml</dc:format>
        <dc:type
           rdf:resource="http://purl.org/dc/dcmitype/StillImage" />
        <dc:title></dc:title>
      </cc:Work>
    </rdf:RDF>
  </metadata>
  <g
     transform="translate(-43.426555,-55.318839)"
     id="layer1">
    <path
       d="m 372.73906,55.318839 c -181.87334,0 -329.312505,147.439161 -329.312505,329.312501 0,181.87334 147.439165,329.3125 329.312505,329.3125 181.87334,0 329.3125,-147.43915 329.3125,-329.3125 0,-181.87334 -147.43916,-329.312501 -329.3125,-329.312501 z m 0,43.375 c 157.94265,0 286,127.994851 286,285.937501 0,157.94265 -128.05735,286.03125 -286,286.03125 -157.94266,0 -285.968755,-128.0886 -285.968755,-286.03125 0,-157.94265 128.026095,-285.937501 285.968755,-285.937501 z m 0,38.968751 c -136.4049,0 -247,110.56385 -247,246.96875 0,136.4049 110.5951,247 247,247 136.4049,0 246.96875,-110.5951 246.96875,-247 0,-136.4049 -110.56385,-246.96875 -246.96875,-246.96875 z m 9.65625,75.46875 c 12.44422,-0.0795 23.96137,5.92193 34.53125,17.96875 l 13.3125,-3.59375 12.78125,-5.65625 c 6.07883,-1.62858 20.30615,6.56492 42.6875,24.625 l 0.5625,2.125 c 1.12741,4.20885 -6.22848,9.43182 -22.09375,15.6875 l 1.15625,4.375 c 10.52405,6.07645 23.01852,17.13708 37.46875,33.1875 2.10401,-0.56363 6.83604,2.17796 14.21875,8.21875 l 1.1875,4.40625 c -0.74086,6.58888 -5.08198,10.9326 -13.03125,13.0625 l -27,7.25 c 21.40133,13.93752 34.23947,28.89037 38.53125,44.90625 5.10561,19.05566 10.38356,32.86831 15.8125,41.4375 -1.16879,7.3299 -0.071,17.38239 3.34375,30.125 l 7.84375,29.28125 c 4.76101,17.76964 0.44378,28.46017 -13,32.0625 -25.75139,-0.24203 -48.2611,-9.3811 -67.5,-27.40625 l -1.78125,-6.65625 c -0.40747,-1.51972 4.54017,-10.13754 14.875,-25.8125 l -2.25,0.625 c -22.07858,6.91832 -31.44579,16.68679 -28.0625,29.3125 4.25317,10.26251 6.56144,16.02654 6.90625,17.3125 -0.65521,6.44045 -2.09153,9.96734 -4.3125,10.5625 l -11.21875,3 c -31.69053,0.97348 -50.79714,-10.68367 -57.3125,-35 l -2.28125,0.59375 c 4.0407,15.08082 -0.68106,24.4289 -14.125,28.03125 l -4.53125,1.21875 c -6.66375,1.7855 -16.83397,-0.31793 -30.46875,-6.3125 -12.3534,16.09053 -21.14562,24.84036 -26.40625,26.25 l -6.65625,1.78125 c -30.9521,-7.49408 -50.66738,-26.99806 -59.125,-58.5625 -4.82403,-18.00336 -13.2687,-52.53518 -25.3125,-103.5625 -7.84736,-23.20749 -15.06861,-41.26125 -21.65625,-54.15625 9.88435,-7.53493 18.94162,-12.4008 27.125,-14.59375 11.64074,0.89062 18.37056,4.7903 20.21875,11.6875 l 27.65625,-12.46875 0.65625,2.4375 3.75,-3.625 c 14.72999,-3.9467 26.98284,-0.0337 36.78125,11.75 15.29889,8.93193 24.92796,20.77013 28.875,35.5 6.78427,-5.07547 12.26003,-8.18461 16.46875,-9.3125 -13.28656,-7.9672 -21.05718,-16.2157 -23.34375,-24.75 2.16457,-2.2087 4.95334,-3.77888 8.34375,-4.6875 l -1.21875,-4.53125 c -4.20872,1.12791 -13.4469,-3.62498 -27.6875,-14.21875 l -2.34375,-8.75 c 15.98848,-7.66694 27.48556,-12.46402 34.5,-14.34375 l 15.4375,-4.125 c 1.63653,-0.4383 2.6551,0.10547 3.0625,1.625 5.36684,-3.81852 7.7512,-6.77045 7.1875,-8.875 l -7.21875,-27.03125 c -0.37215,-4.6614 4.29669,-8.27474 14,-10.875 3.63133,-0.97295 7.17187,-1.47775 10.65625,-1.5 z m 4.4375,4.59375 -16.21875,1.90625 -2.28125,0.59375 c -2.22135,0.59545 -3.88372,3.502 -5,8.6875 l 6.59375,24.53125 -0.9375,4.96875 2.09375,-0.5625 c -0.50136,-1.87022 4.96577,-14.48802 16.375,-37.84375 l -0.625,-2.28125 z m 10.1875,2.15625 -2.28125,0.625 c -7.4334,10.13644 -16.33309,27.74346 -26.65625,52.8125 5.96201,-1.5973 10.33693,2.78318 13.125,13.1875 -23.26207,8.11274 -33.53781,17.19634 -30.84375,27.25 l 2.09375,-0.5625 c 18.9385,-5.0744 33.05848,-23.93985 42.34375,-56.625 7.58351,-8.17141 11.15717,-13.1524 10.6875,-14.90625 -3.15665,0.84606 -5.15443,-0.31205 -6,-3.46875 l -0.625,-2.28125 -1.84375,-16.03125 z m 47.15625,6.34375 c -8.16622,10.20746 -13.05105,15.53047 -14.6875,15.96875 l 1.28125,4.71875 c 19.40604,-5.19962 28.47149,-10.13601 27.21875,-14.8125 -0.37614,-1.40258 -4.99226,-3.35153 -13.8125,-5.875 z m -21.8125,8.28125 c -12.74289,3.41466 -26.02307,25.39665 -39.84375,65.9375 4.66823,5.26484 7.37303,9.31949 8.125,12.125 l 22.625,-41.78125 -3.65625,-3.90625 -3.59375,-13.34375 8.9375,-2.375 c 8.18315,-2.19246 13.16984,-7.54665 14.90625,-16.03125 -1.63689,0.43884 -4.13906,0.22884 -7.5,-0.625 z m -55,26.96875 -10.78125,5.34375 -16.03125,1.84375 c 0.90827,3.39049 -0.19441,8.51088 -3.25,15.34375 21.8505,-8.2353 31.87919,-15.75049 30.0625,-22.53125 z m 73.125,4.28125 -10.59375,5.28125 -15.4375,4.125 c 0.59496,2.22143 -3.07865,9.60286 -11,22.125 0.53233,1.98759 -4.90363,14.64476 -16.3125,38 l 20.15625,-5.40625 c 7.86541,-7.11935 12.84431,-15.70589 14.90625,-25.78125 l -6.03125,-12.65625 c 3.03933,-0.8142 4.15792,-2.70214 3.375,-5.625 l 11.25,-3 c 1.98718,-0.53228 5.20184,-6.2124 9.6875,-17.0625 z m 9.9375,0.4375 c -1.75956,0.0309 -3.40321,0.24521 -4.9375,0.65625 l -4.28125,10.71875 c 1.51952,-0.407 3.95115,-0.23641 7.28125,0.5 8.59425,-3.93153 12.50172,-7.42896 11.6875,-10.46875 -3.55835,-1.00421 -6.81739,-1.45784 -9.75,-1.40625 z m -114.4375,3.6875 c -2.68895,0.72072 -11.20246,4.56799 -25.5,11.53125 l 0.5625,2.09375 c 2.65573,4.30056 7.73669,5.44252 15.21875,3.4375 l 2.28125,-0.59375 c 1.98725,-0.53227 4.65824,-5.26437 8.03125,-14.1875 l -0.59375,-2.28125 z m 142.59375,21.5625 -2.28125,0.59375 c -10.40483,2.7881 -20.3629,10.30339 -29.875,22.5 l 0.59375,2.28125 24.5625,-6.59375 c 6.26002,-6.56387 8.59729,-12.81888 7,-18.78125 z m 10.15625,2.15625 -2.28125,0.625 c -2.33839,0.62673 -4.50502,4.37948 -6.53125,11.3125 l 11.21875,-3 -2.40625,-8.9375 z m -206.25,8.03125 c -1.74754,0.0101 -3.40314,0.21395 -4.9375,0.625 l -4.375,1.1875 c -4.74282,4.2782 -7.29781,9.70111 -7.65625,16.3125 4.39483,4.71162 7.46457,10.28915 9.1875,16.71875 l 2.28125,-0.59375 c 11.21322,-17.53907 16.25261,-28.41619 15.125,-32.625 -3.50477,-1.09688 -6.71243,-1.64185 -9.625,-1.625 z m 64.90625,1.09375 -2.4375,0.65625 c -5.1792,4.52041 -9.23377,7.15458 -12.15625,7.9375 l 1.78125,6.6875 6.65625,-1.8125 c 2.99967,-1.43011 5.0503,-5.90493 6.15625,-13.46875 z m 101.03125,1.6875 -24.375,6.53125 c 1.59735,5.96237 -0.67114,9.74631 -6.75,11.375 l 1.25,4.5625 3.75,-3.4375 22.28125,-5.96875 c -0.68939,-2.57171 0.59982,-6.93061 3.84375,-13.0625 z m -225.9375,1.28125 c -1.87516,0.0252 -4.00565,0.37358 -6.34375,1 -8.86291,14.1531 -12.75254,23.2129 -11.6875,27.1875 l 4.6875,8.3125 -1.125,5 c 2.27156,2.39867 3.62395,4.42599 4.0625,6.0625 l 2.125,-0.5625 c -0.90843,-3.3901 3.8132,-12.62826 14.1875,-27.6875 l 4.28125,-10.71875 -1.1875,-4.375 c -1.88475,-2.85442 -4.87464,-4.27422 -9,-4.21875 z m 41.5625,0.1875 -4.375,1.1875 c -18.12035,4.85555 -30.12906,16.84562 -36.03125,35.96875 -2.10431,0.56403 -5.38143,6.17352 -9.78125,16.875 l 6.03125,22.46875 c 18.18563,-21.91329 25.60163,-39.07662 22.28125,-51.46875 11.92429,-3.19494 19.2248,-11.54047 21.875,-25.03125 z m -54.5625,2.59375 -4.375,1.15625 -10.65625,5.125 c 2.1776,2.04798 3.93429,5.59827 5.28125,10.625 2.1043,-0.56365 5.35017,-6.2044 9.75,-16.90625 z m 86.6875,0.8125 c -8.70802,19.87529 -14.69548,30.27934 -17.96875,31.15625 l 7.1875,26.8125 c 15.64048,-24.865 23.21969,-38.11314 22.78125,-39.75 l -0.59375,-2.28125 c -2.9133,-10.872 -6.71334,-16.19238 -11.40625,-15.9375 z m 90.25,14.1875 c -18.00358,4.82421 -28.20282,14.73977 -30.5625,29.78125 l 2.28125,-0.59375 c 10.283,-6.51415 20.09396,-14.86141 29.40625,-25 l -1.125,-4.1875 z m 69.78125,10.03125 -3.78125,3.46875 -17.875,4.78125 c 0.91115,3.40132 -0.33136,7.75272 -3.6875,13.03125 1.42889,-0.33261 2.32438,0.17705 2.6875,1.53125 l 10.65625,-5.125 2.28125,-0.59375 c 1.19008,4.44255 3.26463,6.25204 6.1875,5.46875 -0.47013,-1.75342 2.44205,-8.91708 8.71875,-21.5 -3.03979,0.81462 -4.78053,0.45743 -5.1875,-1.0625 z m -143.9375,0.0625 -2.28125,0.59375 -22.21875,42.03125 c 3.22636,12.04139 -2.94771,21.72327 -18.53125,29.03125 l -33.03125,47.1875 c 3.6185,7.42551 6.40165,14.71257 8.3125,21.84375 14.01059,-18.78993 20.68901,-29.4199 20.03125,-31.875 l 4.71875,-1.25 -2.9375,-11.0625 c -0.78317,-2.92252 8.00911,-11.74299 26.375,-26.4375 16.14331,-28.13224 25.09007,-42.40497 26.84375,-42.875 l -5.34375,-10.8125 -1.9375,-16.375 z m 154.09375,2.125 c -9.27653,14.01323 -13.69383,27.14357 -13.28125,39.4375 -7.01457,1.87963 -13.6635,10.06975 -19.9375,24.53125 9.58992,-5.82729 18.18216,-9.77627 25.78125,-11.8125 0.40697,1.51991 1.31562,2.09477 2.71875,1.71875 10.81811,-21.81875 17.33332,-36.33264 19.53125,-43.5625 -3.73342,-5.51506 -8.68331,-8.94753 -14.8125,-10.3125 z m -109.375,2.78125 -2.4375,0.65625 c -22.65849,10.8328 -33.19149,19.29608 -31.5625,25.375 l 5.125,0.875 8.9375,-2.375 c 7.94942,-2.12991 14.59837,-10.32006 19.9375,-24.53125 z m 71.34375,7.40625 c -23.03053,6.17112 -37.38432,21.15257 -43.03125,44.96875 -3.50735,0.93985 -9.75199,10.62168 -18.71875,29.0625 l 6.59375,24.5625 c 17.65296,-23.90076 25.65993,-38.88954 24.03125,-44.96875 -0.25081,-0.93511 -2.1941,-5.17628 -5.84375,-12.71875 -1.66041,-6.19583 3.86992,-12.42744 16.59375,-18.71875 13.7504,-8.06977 20.73316,-14.77634 20.9375,-20.09375 l -0.5625,-2.09375 z m -155.625,0.71875 c -2.88298,1.39913 -4.00163,3.3264 -3.34375,5.78125 l 10.21875,38.0625 4.53125,-1.21875 -11.40625,-42.625 z m -26.84375,7.1875 c -2.57196,0.68929 -10.40836,13.24649 -23.53125,37.6875 l 5.96875,22.28125 c 6.09748,-5.76858 13.96506,-18.28643 23.59375,-37.53125 l -6.03125,-22.4375 z m 239.96875,0.53125 c -2.45531,0.65797 -10.10511,13.93729 -22.96875,39.8125 l 3.34375,4 1.78125,6.65625 0.90625,11.78125 -13.34375,3.59375 c -8.18362,2.19282 -13.1702,7.44518 -14.9375,15.8125 l 24.5625,-6.5625 c 8.6708,-11.59542 17.75702,-28.44098 27.25,-50.53125 l -6.59375,-24.5625 z m -55.09375,0.65625 c -0.53246,0.82803 -1.11346,1.68868 -1.75,2.5625 l 2.28125,-0.625 -0.53125,-1.9375 z m -34.71875,4.25 -2.28125,0.625 -3.78125,3.4375 c -8.53036,-0.97196 -14.95591,-0.87761 -19.28125,0.28125 0.53238,1.98755 -4.33654,10.50367 -14.59375,25.53125 l 3.3125,4 4.8125,17.875 2.28125,-0.59375 c 17.86937,-31.97782 27.90358,-48.27969 30.125,-48.875 l -0.59375,-2.28125 z m -31.84375,6.09375 -10.78125,5.34375 2.40625,8.9375 c 3.71954,-5.75789 6.90476,-8.99816 9.59375,-9.71875 l -1.21875,-4.5625 z m -45.1875,2.53125 -24.46875,42.625 5.84375,12.71875 c -0.7994,3.09613 -0.75218,6.28923 0.125,9.5625 17.3236,-19.05113 24.3825,-34.54429 21.1875,-46.46875 -0.31336,-1.16891 -1.20861,-7.30617 -2.6875,-18.4375 z m 118.90625,13.8125 c -30.72051,16.7519 -44.91188,29.37228 -42.625,37.90625 -12.7959,17.71273 -18.59675,28.80767 -17.40625,33.25 l -2.28125,0.59375 5.28125,10.625 1.8125,6.84375 -1.09375,5 2.28125,-0.625 c 14.80136,-22.38491 21.50306,-36.13736 20.125,-41.28125 -1.03394,-3.8578 -1.85857,-10.02622 -2.5,-18.5 l 4.375,-1.1875 c 14.61294,-3.91547 25.28531,-14.77914 32.03125,-32.625 z m -184.15625,1.40625 c -16.03943,23.84446 -23.72042,37.05317 -23.03125,39.625 -0.83065,2.97922 -0.78344,6.17232 0.125,9.5625 l 3.59375,13.5 c 3.61564,-1.46995 12.78841,-15.15358 27.53125,-41.03125 l -8.21875,-21.65625 z m 96.5625,2.6875 -4.375,1.1875 c 5.51299,20.57546 15.53331,49.14876 30.09375,85.71875 l 2.28125,-0.625 -1.25,-4.71875 c -3.08618,-5.43797 -5.24733,-10.37003 -6.4375,-14.8125 l 2.28125,-0.625 -8.15625,-12.28125 -0.6875,-11.65625 c -0.53268,-1.98728 -3.31583,-9.27437 -8.3125,-21.84375 l 1.0625,-5.15625 c -3.08617,-5.43792 -5.24714,-10.51115 -6.5,-15.1875 z m 144.5625,2.25 -23.03125,39.625 c 2.87485,5.11874 5.77403,13.09664 8.6875,23.96875 2.5403,-0.80604 10.07412,-14.77612 22.59375,-41.9375 l -2.96875,-11.0625 -5.28125,-10.59375 z m -166.84375,13.5 -2.09375,0.5625 c -14.80165,22.38507 -21.50346,36.20811 -20.09375,41.46875 2.63117,9.82013 -7.38146,20.45782 -30,31.90625 0.4698,1.75361 -5.70425,11.43553 -18.53125,29.03125 4.48882,5.06216 9.72527,6.78505 15.6875,5.1875 l 42.96875,-64.125 c 8.22236,-8.59337 13.60377,-18.12808 16.1875,-28.59375 l -4.125,-15.4375 z m 175.8125,20 -2.28125,0.59375 c 0.72019,2.68888 -3.42658,11.01842 -12.46875,24.96875 -8.59355,17.96496 -16.10403,28.81262 -22.5,32.53125 6.51181,8.40429 11.64823,12.59827 15.40625,12.59375 l 2.28125,-0.625 14.59375,-25.5 4.5625,-1.25 -0.625,-2.25 c -0.47018,-1.75353 2.84638,-7.46482 9.90625,-17.125 -0.40752,-1.5197 -1.75993,-3.54702 -4.0625,-6.0625 l -0.6875,-11.65625 c -2.30319,-2.51531 -3.68676,-4.58199 -4.125,-6.21875 z m -0.40625,43.3125 c -9.59147,17.98173 -14.09538,28.05197 -13.53125,30.15625 8.32517,-0.7272 13.01005,-1.2493 14.0625,-1.53125 13.44381,-3.60231 17.13904,-16.61662 11.125,-39.0625 l -0.5625,-2.09375 -8.8125,11.9375 -2.28125,0.59375 z m -65.1875,-37.78125 c -21.27696,5.70118 -33.33296,14.56877 -36.125,26.59375 -11.43278,16.72095 -16.91588,26.14565 -16.46875,28.28125 2.3027,2.51545 3.6551,4.54276 4.0625,6.0625 l -2.28125,0.59375 c 1.22148,4.55934 5.58038,5.84856 13.0625,3.84375 13.81409,-19.99031 19.56783,-34.31771 17.25,-42.96875 15.26178,-8.97602 22.09734,-16.444 20.5,-22.40625 z m -37.75,65.375 -0.875,5.125 16,-2.03125 c 4.12669,-4.23826 7.45912,-6.68583 10.03125,-7.375 l -1.21875,-4.5625 -5.09375,-10.65625 -2.28125,0.59375 c -6.35612,11.35108 -10.43411,17.28016 -12.1875,17.75 l -4.375,1.15625 z m -67.375,-63.5 c -14.67862,20.97378 -24.38691,35.53492 -29.09375,43.6875 -2.3382,0.62655 -4.50491,4.44991 -6.5,11.5 l 3.96875,-3.5 11.03125,-2.96875 2.40625,8.96875 2.28125,-0.625 c 14.63866,-21.58952 22.80879,-32.62381 24.5625,-33.09375 l -3.5625,-13.3125 -5.09375,-10.65625 z m -35.1875,11.84375 c -2.94566,1.16523 -4.03305,3.09252 -3.3125,5.78125 l 2.34375,8.78125 c 3.03945,-0.81439 4.15801,-2.67108 3.375,-5.59375 l -2.40625,-8.96875 z m -27.4375,4.90625 c -16.63462,21.62317 -24.68874,33.37955 -24.1875,35.25 l 3.625,13.5 c 1.25069,2.79736 3.10744,3.87658 5.5625,3.21875 12.64744,-17.79819 20.60158,-27.12287 23.875,-28 -3.68125,-7.65922 -6.65102,-15.66841 -8.875,-23.96875 z m 74.1875,8.90625 c -15.02934,21.06773 -22.28263,32.57513 -21.75,34.5625 l 0.625,2.28125 c 5.93912,-1.21547 9.24823,-0.54066 9.9375,2.03125 12.47291,-7.22638 18.18975,-12.69649 17.1875,-16.4375 l -6,-22.4375 z m -58.09375,42.0625 c -2.33819,0.62651 -4.57535,4.33984 -6.75,11.1875 l 6.84375,-1.8125 -0.0937,-9.375 z"
       id="path2990"
       style="fill:#000000;fill-opacity:1" />
  </g>
</svg>
