<?xml version="1.0" encoding="UTF-8" standalone="no"?>
<svg
   xmlns:dc="http://purl.org/dc/elements/1.1/"
   xmlns:cc="http://creativecommons.org/ns#"
   xmlns:rdf="http://www.w3.org/1999/02/22-rdf-syntax-ns#"
   xmlns:svg="http://www.w3.org/2000/svg"
   xmlns="http://www.w3.org/2000/svg"
   version="1.1"
   id="svg2"
   viewBox="0 0 1062.9922 354.3307"
   height="100mm"
   width="300mm">
  <defs
     id="defs4" />
  <metadata
     id="metadata7">
    <rdf:RDF>
      <cc:Work
         rdf:about="">
        <dc:format>image/svg+xml</dc:format>
        <dc:type
           rdf:resource="http://purl.org/dc/dcmitype/StillImage" />
        <dc:title></dc:title>
      </cc:Work>
    </rdf:RDF>
  </metadata>
  <g
     transform="translate(-87.83036,-281.62971)"
     id="layer1">
    <g
       transform="translate(-2.4069314,-6.2622166e-7)"
       id="g4223">
      <g
         transform="matrix(0.4100263,0,0,0.4100263,140.43142,301.08608)"
         id="layer1-3">
        <path
           id="path2990"
           d="m 372.73906,55.318839 c -181.87334,0 -329.312505,147.439161 -329.312505,329.312501 0,181.87334 147.439165,329.3125 329.312505,329.3125 181.87334,0 329.3125,-147.43915 329.3125,-329.3125 0,-181.87334 -147.43916,-329.312501 -329.3125,-329.312501 z m 0,43.375 c 157.94265,0 286,127.994851 286,285.937501 0,157.94265 -128.05735,286.03125 -286,286.03125 -157.94266,0 -285.968755,-128.0886 -285.968755,-286.03125 0,-157.94265 128.026095,-285.937501 285.968755,-285.937501 z m 0,38.968751 c -136.4049,0 -247,110.56385 -247,246.96875 0,136.4049 110.5951,247 247,247 136.4049,0 246.96875,-110.5951 246.96875,-247 0,-136.4049 -110.56385,-246.96875 -246.96875,-246.96875 z m 9.65625,75.46875 c 12.44422,-0.0795 23.96137,5.92193 34.53125,17.96875 l 13.3125,-3.59375 12.78125,-5.65625 c 6.07883,-1.62858 20.30615,6.56492 42.6875,24.625 l 0.5625,2.125 c 1.12741,4.20885 -6.22848,9.43182 -22.09375,15.6875 l 1.15625,4.375 c 10.52405,6.07645 23.01852,17.13708 37.46875,33.1875 2.10401,-0.56363 6.83604,2.17796 14.21875,8.21875 l 1.1875,4.40625 c -0.74086,6.58888 -5.08198,10.9326 -13.03125,13.0625 l -27,7.25 c 21.40133,13.93752 34.23947,28.89037 38.53125,44.90625 5.10561,19.05566 10.38356,32.86831 15.8125,41.4375 -1.16879,7.3299 -0.071,17.38239 3.34375,30.125 l 7.84375,29.28125 c 4.76101,17.76964 0.44378,28.46017 -13,32.0625 -25.75139,-0.24203 -48.2611,-9.3811 -67.5,-27.40625 l -1.78125,-6.65625 c -0.40747,-1.51972 4.54017,-10.13754 14.875,-25.8125 l -2.25,0.625 c -22.07858,6.91832 -31.44579,16.68679 -28.0625,29.3125 4.25317,10.26251 6.56144,16.02654 6.90625,17.3125 -0.65521,6.44045 -2.09153,9.96734 -4.3125,10.5625 l -11.21875,3 c -31.69053,0.97348 -50.79714,-10.68367 -57.3125,-35 l -2.28125,0.59375 c 4.0407,15.08082 -0.68106,24.4289 -14.125,28.03125 l -4.53125,1.21875 c -6.66375,1.7855 -16.83397,-0.31793 -30.46875,-6.3125 -12.3534,16.09053 -21.14562,24.84036 -26.40625,26.25 l -6.65625,1.78125 c -30.9521,-7.49408 -50.66738,-26.99806 -59.125,-58.5625 -4.82403,-18.00336 -13.2687,-52.53518 -25.3125,-103.5625 -7.84736,-23.20749 -15.06861,-41.26125 -21.65625,-54.15625 9.88435,-7.53493 18.94162,-12.4008 27.125,-14.59375 11.64074,0.89062 18.37056,4.7903 20.21875,11.6875 l 27.65625,-12.46875 0.65625,2.4375 3.75,-3.625 c 14.72999,-3.9467 26.98284,-0.0337 36.78125,11.75 15.29889,8.93193 24.92796,20.77013 28.875,35.5 6.78427,-5.07547 12.26003,-8.18461 16.46875,-9.3125 -13.28656,-7.9672 -21.05718,-16.2157 -23.34375,-24.75 2.16457,-2.2087 4.95334,-3.77888 8.34375,-4.6875 l -1.21875,-4.53125 c -4.20872,1.12791 -13.4469,-3.62498 -27.6875,-14.21875 l -2.34375,-8.75 c 15.98848,-7.66694 27.48556,-12.46402 34.5,-14.34375 l 15.4375,-4.125 c 1.63653,-0.4383 2.6551,0.10547 3.0625,1.625 5.36684,-3.81852 7.7512,-6.77045 7.1875,-8.875 l -7.21875,-27.03125 c -0.37215,-4.6614 4.29669,-8.27474 14,-10.875 3.63133,-0.97295 7.17187,-1.47775 10.65625,-1.5 z m 4.4375,4.59375 -16.21875,1.90625 -2.28125,0.59375 c -2.22135,0.59545 -3.88372,3.502 -5,8.6875 l 6.59375,24.53125 -0.9375,4.96875 2.09375,-0.5625 c -0.50136,-1.87022 4.96577,-14.48802 16.375,-37.84375 l -0.625,-2.28125 z m 10.1875,2.15625 -2.28125,0.625 c -7.4334,10.13644 -16.33309,27.74346 -26.65625,52.8125 5.96201,-1.5973 10.33693,2.78318 13.125,13.1875 -23.26207,8.11274 -33.53781,17.19634 -30.84375,27.25 l 2.09375,-0.5625 c 18.9385,-5.0744 33.05848,-23.93985 42.34375,-56.625 7.58351,-8.17141 11.15717,-13.1524 10.6875,-14.90625 -3.15665,0.84606 -5.15443,-0.31205 -6,-3.46875 l -0.625,-2.28125 -1.84375,-16.03125 z m 47.15625,6.34375 c -8.16622,10.20746 -13.05105,15.53047 -14.6875,15.96875 l 1.28125,4.71875 c 19.40604,-5.19962 28.47149,-10.13601 27.21875,-14.8125 -0.37614,-1.40258 -4.99226,-3.35153 -13.8125,-5.875 z m -21.8125,8.28125 c -12.74289,3.41466 -26.02307,25.39665 -39.84375,65.9375 4.66823,5.26484 7.37303,9.31949 8.125,12.125 l 22.625,-41.78125 -3.65625,-3.90625 -3.59375,-13.34375 8.9375,-2.375 c 8.18315,-2.19246 13.16984,-7.54665 14.90625,-16.03125 -1.63689,0.43884 -4.13906,0.22884 -7.5,-0.625 z m -55,26.96875 -10.78125,5.34375 -16.03125,1.84375 c 0.90827,3.39049 -0.19441,8.51088 -3.25,15.34375 21.8505,-8.2353 31.87919,-15.75049 30.0625,-22.53125 z m 73.125,4.28125 -10.59375,5.28125 -15.4375,4.125 c 0.59496,2.22143 -3.07865,9.60286 -11,22.125 0.53233,1.98759 -4.90363,14.64476 -16.3125,38 l 20.15625,-5.40625 c 7.86541,-7.11935 12.84431,-15.70589 14.90625,-25.78125 l -6.03125,-12.65625 c 3.03933,-0.8142 4.15792,-2.70214 3.375,-5.625 l 11.25,-3 c 1.98718,-0.53228 5.20184,-6.2124 9.6875,-17.0625 z m 9.9375,0.4375 c -1.75956,0.0309 -3.40321,0.24521 -4.9375,0.65625 l -4.28125,10.71875 c 1.51952,-0.407 3.95115,-0.23641 7.28125,0.5 8.59425,-3.93153 12.50172,-7.42896 11.6875,-10.46875 -3.55835,-1.00421 -6.81739,-1.45784 -9.75,-1.40625 z m -114.4375,3.6875 c -2.68895,0.72072 -11.20246,4.56799 -25.5,11.53125 l 0.5625,2.09375 c 2.65573,4.30056 7.73669,5.44252 15.21875,3.4375 l 2.28125,-0.59375 c 1.98725,-0.53227 4.65824,-5.26437 8.03125,-14.1875 l -0.59375,-2.28125 z m 142.59375,21.5625 -2.28125,0.59375 c -10.40483,2.7881 -20.3629,10.30339 -29.875,22.5 l 0.59375,2.28125 24.5625,-6.59375 c 6.26002,-6.56387 8.59729,-12.81888 7,-18.78125 z m 10.15625,2.15625 -2.28125,0.625 c -2.33839,0.62673 -4.50502,4.37948 -6.53125,11.3125 l 11.21875,-3 -2.40625,-8.9375 z m -206.25,8.03125 c -1.74754,0.0101 -3.40314,0.21395 -4.9375,0.625 l -4.375,1.1875 c -4.74282,4.2782 -7.29781,9.70111 -7.65625,16.3125 4.39483,4.71162 7.46457,10.28915 9.1875,16.71875 l 2.28125,-0.59375 c 11.21322,-17.53907 16.25261,-28.41619 15.125,-32.625 -3.50477,-1.09688 -6.71243,-1.64185 -9.625,-1.625 z m 64.90625,1.09375 -2.4375,0.65625 c -5.1792,4.52041 -9.23377,7.15458 -12.15625,7.9375 l 1.78125,6.6875 6.65625,-1.8125 c 2.99967,-1.43011 5.0503,-5.90493 6.15625,-13.46875 z m 101.03125,1.6875 -24.375,6.53125 c 1.59735,5.96237 -0.67114,9.74631 -6.75,11.375 l 1.25,4.5625 3.75,-3.4375 22.28125,-5.96875 c -0.68939,-2.57171 0.59982,-6.93061 3.84375,-13.0625 z m -225.9375,1.28125 c -1.87516,0.0252 -4.00565,0.37358 -6.34375,1 -8.86291,14.1531 -12.75254,23.2129 -11.6875,27.1875 l 4.6875,8.3125 -1.125,5 c 2.27156,2.39867 3.62395,4.42599 4.0625,6.0625 l 2.125,-0.5625 c -0.90843,-3.3901 3.8132,-12.62826 14.1875,-27.6875 l 4.28125,-10.71875 -1.1875,-4.375 c -1.88475,-2.85442 -4.87464,-4.27422 -9,-4.21875 z m 41.5625,0.1875 -4.375,1.1875 c -18.12035,4.85555 -30.12906,16.84562 -36.03125,35.96875 -2.10431,0.56403 -5.38143,6.17352 -9.78125,16.875 l 6.03125,22.46875 c 18.18563,-21.91329 25.60163,-39.07662 22.28125,-51.46875 11.92429,-3.19494 19.2248,-11.54047 21.875,-25.03125 z m -54.5625,2.59375 -4.375,1.15625 -10.65625,5.125 c 2.1776,2.04798 3.93429,5.59827 5.28125,10.625 2.1043,-0.56365 5.35017,-6.2044 9.75,-16.90625 z m 86.6875,0.8125 c -8.70802,19.87529 -14.69548,30.27934 -17.96875,31.15625 l 7.1875,26.8125 c 15.64048,-24.865 23.21969,-38.11314 22.78125,-39.75 l -0.59375,-2.28125 c -2.9133,-10.872 -6.71334,-16.19238 -11.40625,-15.9375 z m 90.25,14.1875 c -18.00358,4.82421 -28.20282,14.73977 -30.5625,29.78125 l 2.28125,-0.59375 c 10.283,-6.51415 20.09396,-14.86141 29.40625,-25 l -1.125,-4.1875 z m 69.78125,10.03125 -3.78125,3.46875 -17.875,4.78125 c 0.91115,3.40132 -0.33136,7.75272 -3.6875,13.03125 1.42889,-0.33261 2.32438,0.17705 2.6875,1.53125 l 10.65625,-5.125 2.28125,-0.59375 c 1.19008,4.44255 3.26463,6.25204 6.1875,5.46875 -0.47013,-1.75342 2.44205,-8.91708 8.71875,-21.5 -3.03979,0.81462 -4.78053,0.45743 -5.1875,-1.0625 z m -143.9375,0.0625 -2.28125,0.59375 -22.21875,42.03125 c 3.22636,12.04139 -2.94771,21.72327 -18.53125,29.03125 l -33.03125,47.1875 c 3.6185,7.42551 6.40165,14.71257 8.3125,21.84375 14.01059,-18.78993 20.68901,-29.4199 20.03125,-31.875 l 4.71875,-1.25 -2.9375,-11.0625 c -0.78317,-2.92252 8.00911,-11.74299 26.375,-26.4375 16.14331,-28.13224 25.09007,-42.40497 26.84375,-42.875 l -5.34375,-10.8125 -1.9375,-16.375 z m 154.09375,2.125 c -9.27653,14.01323 -13.69383,27.14357 -13.28125,39.4375 -7.01457,1.87963 -13.6635,10.06975 -19.9375,24.53125 9.58992,-5.82729 18.18216,-9.77627 25.78125,-11.8125 0.40697,1.51991 1.31562,2.09477 2.71875,1.71875 10.81811,-21.81875 17.33332,-36.33264 19.53125,-43.5625 -3.73342,-5.51506 -8.68331,-8.94753 -14.8125,-10.3125 z m -109.375,2.78125 -2.4375,0.65625 c -22.65849,10.8328 -33.19149,19.29608 -31.5625,25.375 l 5.125,0.875 8.9375,-2.375 c 7.94942,-2.12991 14.59837,-10.32006 19.9375,-24.53125 z m 71.34375,7.40625 c -23.03053,6.17112 -37.38432,21.15257 -43.03125,44.96875 -3.50735,0.93985 -9.75199,10.62168 -18.71875,29.0625 l 6.59375,24.5625 c 17.65296,-23.90076 25.65993,-38.88954 24.03125,-44.96875 -0.25081,-0.93511 -2.1941,-5.17628 -5.84375,-12.71875 -1.66041,-6.19583 3.86992,-12.42744 16.59375,-18.71875 13.7504,-8.06977 20.73316,-14.77634 20.9375,-20.09375 l -0.5625,-2.09375 z m -155.625,0.71875 c -2.88298,1.39913 -4.00163,3.3264 -3.34375,5.78125 l 10.21875,38.0625 4.53125,-1.21875 -11.40625,-42.625 z m -26.84375,7.1875 c -2.57196,0.68929 -10.40836,13.24649 -23.53125,37.6875 l 5.96875,22.28125 c 6.09748,-5.76858 13.96506,-18.28643 23.59375,-37.53125 l -6.03125,-22.4375 z m 239.96875,0.53125 c -2.45531,0.65797 -10.10511,13.93729 -22.96875,39.8125 l 3.34375,4 1.78125,6.65625 0.90625,11.78125 -13.34375,3.59375 c -8.18362,2.19282 -13.1702,7.44518 -14.9375,15.8125 l 24.5625,-6.5625 c 8.6708,-11.59542 17.75702,-28.44098 27.25,-50.53125 l -6.59375,-24.5625 z m -55.09375,0.65625 c -0.53246,0.82803 -1.11346,1.68868 -1.75,2.5625 l 2.28125,-0.625 -0.53125,-1.9375 z m -34.71875,4.25 -2.28125,0.625 -3.78125,3.4375 c -8.53036,-0.97196 -14.95591,-0.87761 -19.28125,0.28125 0.53238,1.98755 -4.33654,10.50367 -14.59375,25.53125 l 3.3125,4 4.8125,17.875 2.28125,-0.59375 c 17.86937,-31.97782 27.90358,-48.27969 30.125,-48.875 l -0.59375,-2.28125 z m -31.84375,6.09375 -10.78125,5.34375 2.40625,8.9375 c 3.71954,-5.75789 6.90476,-8.99816 9.59375,-9.71875 l -1.21875,-4.5625 z m -45.1875,2.53125 -24.46875,42.625 5.84375,12.71875 c -0.7994,3.09613 -0.75218,6.28923 0.125,9.5625 17.3236,-19.05113 24.3825,-34.54429 21.1875,-46.46875 -0.31336,-1.16891 -1.20861,-7.30617 -2.6875,-18.4375 z m 118.90625,13.8125 c -30.72051,16.7519 -44.91188,29.37228 -42.625,37.90625 -12.7959,17.71273 -18.59675,28.80767 -17.40625,33.25 l -2.28125,0.59375 5.28125,10.625 1.8125,6.84375 -1.09375,5 2.28125,-0.625 c 14.80136,-22.38491 21.50306,-36.13736 20.125,-41.28125 -1.03394,-3.8578 -1.85857,-10.02622 -2.5,-18.5 l 4.375,-1.1875 c 14.61294,-3.91547 25.28531,-14.77914 32.03125,-32.625 z m -184.15625,1.40625 c -16.03943,23.84446 -23.72042,37.05317 -23.03125,39.625 -0.83065,2.97922 -0.78344,6.17232 0.125,9.5625 l 3.59375,13.5 c 3.61564,-1.46995 12.78841,-15.15358 27.53125,-41.03125 l -8.21875,-21.65625 z m 96.5625,2.6875 -4.375,1.1875 c 5.51299,20.57546 15.53331,49.14876 30.09375,85.71875 l 2.28125,-0.625 -1.25,-4.71875 c -3.08618,-5.43797 -5.24733,-10.37003 -6.4375,-14.8125 l 2.28125,-0.625 -8.15625,-12.28125 -0.6875,-11.65625 c -0.53268,-1.98728 -3.31583,-9.27437 -8.3125,-21.84375 l 1.0625,-5.15625 c -3.08617,-5.43792 -5.24714,-10.51115 -6.5,-15.1875 z m 144.5625,2.25 -23.03125,39.625 c 2.87485,5.11874 5.77403,13.09664 8.6875,23.96875 2.5403,-0.80604 10.07412,-14.77612 22.59375,-41.9375 l -2.96875,-11.0625 -5.28125,-10.59375 z m -166.84375,13.5 -2.09375,0.5625 c -14.80165,22.38507 -21.50346,36.20811 -20.09375,41.46875 2.63117,9.82013 -7.38146,20.45782 -30,31.90625 0.4698,1.75361 -5.70425,11.43553 -18.53125,29.03125 4.48882,5.06216 9.72527,6.78505 15.6875,5.1875 l 42.96875,-64.125 c 8.22236,-8.59337 13.60377,-18.12808 16.1875,-28.59375 l -4.125,-15.4375 z m 175.8125,20 -2.28125,0.59375 c 0.72019,2.68888 -3.42658,11.01842 -12.46875,24.96875 -8.59355,17.96496 -16.10403,28.81262 -22.5,32.53125 6.51181,8.40429 11.64823,12.59827 15.40625,12.59375 l 2.28125,-0.625 14.59375,-25.5 4.5625,-1.25 -0.625,-2.25 c -0.47018,-1.75353 2.84638,-7.46482 9.90625,-17.125 -0.40752,-1.5197 -1.75993,-3.54702 -4.0625,-6.0625 l -0.6875,-11.65625 c -2.30319,-2.51531 -3.68676,-4.58199 -4.125,-6.21875 z m -0.40625,43.3125 c -9.59147,17.98173 -14.09538,28.05197 -13.53125,30.15625 8.32517,-0.7272 13.01005,-1.2493 14.0625,-1.53125 13.44381,-3.60231 17.13904,-16.61662 11.125,-39.0625 l -0.5625,-2.09375 -8.8125,11.9375 -2.28125,0.59375 z m -65.1875,-37.78125 c -21.27696,5.70118 -33.33296,14.56877 -36.125,26.59375 -11.43278,16.72095 -16.91588,26.14565 -16.46875,28.28125 2.3027,2.51545 3.6551,4.54276 4.0625,6.0625 l -2.28125,0.59375 c 1.22148,4.55934 5.58038,5.84856 13.0625,3.84375 13.81409,-19.99031 19.56783,-34.31771 17.25,-42.96875 15.26178,-8.97602 22.09734,-16.444 20.5,-22.40625 z m -37.75,65.375 -0.875,5.125 16,-2.03125 c 4.12669,-4.23826 7.45912,-6.68583 10.03125,-7.375 l -1.21875,-4.5625 -5.09375,-10.65625 -2.28125,0.59375 c -6.35612,11.35108 -10.43411,17.28016 -12.1875,17.75 l -4.375,1.15625 z m -67.375,-63.5 c -14.67862,20.97378 -24.38691,35.53492 -29.09375,43.6875 -2.3382,0.62655 -4.50491,4.44991 -6.5,11.5 l 3.96875,-3.5 11.03125,-2.96875 2.40625,8.96875 2.28125,-0.625 c 14.63866,-21.58952 22.80879,-32.62381 24.5625,-33.09375 l -3.5625,-13.3125 -5.09375,-10.65625 z m -35.1875,11.84375 c -2.94566,1.16523 -4.03305,3.09252 -3.3125,5.78125 l 2.34375,8.78125 c 3.03945,-0.81439 4.15801,-2.67108 3.375,-5.59375 l -2.40625,-8.96875 z m -27.4375,4.90625 c -16.63462,21.62317 -24.68874,33.37955 -24.1875,35.25 l 3.625,13.5 c 1.25069,2.79736 3.10744,3.87658 5.5625,3.21875 12.64744,-17.79819 20.60158,-27.12287 23.875,-28 -3.68125,-7.65922 -6.65102,-15.66841 -8.875,-23.96875 z m 74.1875,8.90625 c -15.02934,21.06773 -22.28263,32.57513 -21.75,34.5625 l 0.625,2.28125 c 5.93912,-1.21547 9.24823,-0.54066 9.9375,2.03125 12.47291,-7.22638 18.18975,-12.69649 17.1875,-16.4375 l -6,-22.4375 z m -58.09375,42.0625 c -2.33819,0.62651 -4.57535,4.33984 -6.75,11.1875 l 6.84375,-1.8125 -0.0937,-9.375 z"
           style="fill:#d36e99;fill-opacity:1" />
      </g>
      <g
         id="g4212"
         transform="translate(10.000001,0)">
        <path
           id="path4167"
           d="m 510.5957,397.99414 c -23.24783,0.62081 -41.66983,20.97834 -47.18196,42.40822 -4.3342,17.16357 -5.95058,38.05058 6.43782,52.41991 10.7371,11.92545 28.67273,13.54159 43.58985,10.72461 16.26862,-3.70466 29.13972,-16.19092 37.59765,-30.07422 -2.81685,-2.52631 -5.31362,-15.22633 -8.38266,-9.60452 -8.79938,14.38063 -25.14371,27.803 -43.01578,23.81936 -12.45164,-2.93233 -15.43134,-17.89086 -14.7871,-28.875 0.85256,-16.09831 6.06506,-34.26142 20.86132,-42.92383 7.58668,-4.47812 21.06184,-2.20173 21.38477,8.35742 1.51043,6.56327 -5.54413,16.55524 -12.45703,12.03321 -3.40358,-3.62202 -0.31636,-8.34869 2.99609,-10.61133 -7.54898,-0.4439 -18.83444,0.29246 -20.9082,9.38476 -1.95749,10.37804 9.68683,17.40166 18.83594,17.2461 15.79229,1.76686 28.92358,-14.15495 27.33984,-29.29883 0.0664,-13.67 -12.68689,-23.99634 -25.67674,-24.69887 -2.19971,-0.26133 -4.42003,-0.33534 -6.63381,-0.30699 z"
           style="font-style:normal;font-variant:normal;font-weight:bold;font-stretch:normal;font-size:medium;line-height:125%;font-family:'Lily Script One';-inkscape-font-specification:'Lily Script One Bold';letter-spacing:0px;word-spacing:0px;fill:#333333;fill-opacity:1;stroke:none;stroke-width:1px;stroke-linecap:butt;stroke-linejoin:miter;stroke-opacity:1" />
        <path
           id="path4169"
           d="m 555.31055,398.00195 c -3.90989,0.2371 -10.00355,0.22315 -8.75039,5.82202 -3.72696,33.3692 -7.69327,66.75235 -11.58946,100.12134 7.278,0 14.55599,0 21.83399,0 2.28694,-15.23749 3.17323,-30.7971 6.3164,-45.84179 1.22814,-5.49381 8.78302,-10.52521 13.16211,-5.40235 3.02593,6.59153 -1.00911,14.25147 -0.69882,21.17991 -1.18729,8.25114 -3.19049,17.97242 3.11289,24.79665 8.85392,9.99905 26.37845,6.34221 33.39453,-4.12695 3.24279,-4.99847 7.15315,-11.04277 6.64648,-16.94336 -1.89044,-3.92668 -5.1928,-6.91803 -8.03906,-10.13086 -2.08662,7.66556 -4.09589,18.33007 -12.76563,20.94532 -4.12524,-1.39621 -1.36597,-7.78682 -1.50406,-11.00607 0.35205,-10.03045 5.21644,-20.32659 2.05875,-30.24784 -5.26203,-12.67304 -23.00575,-14.71482 -33.61914,-7.82031 1.35747,-11.66492 3.91771,-23.39004 3.87695,-35.11719 -1.44472,-5.77077 -8.56485,-6.38978 -13.43554,-6.22852 z"
           style="font-style:normal;font-variant:normal;font-weight:bold;font-stretch:normal;font-size:medium;line-height:125%;font-family:'Lily Script One';-inkscape-font-specification:'Lily Script One Bold';letter-spacing:0px;word-spacing:0px;fill:#333333;fill-opacity:1;stroke:none;stroke-width:1px;stroke-linecap:butt;stroke-linejoin:miter;stroke-opacity:1" />
        <path
           id="path4171"
           d="m 623.18555,398.13281 c -9.97773,0.009 -15.85285,13.36073 -9.13282,20.73438 5.97143,8.00209 20.04057,4.74636 22.08594,-4.95899 2.19853,-7.95498 -4.75423,-16.34133 -12.95312,-15.77539 z m -0.89063,37.52344 c -6.00377,0.34485 -14.99628,2.82259 -13.95692,10.67822 -1.07653,14.5271 -4.539,28.9754 -4.33605,43.55225 0.66471,9.68532 10.41818,15.79483 19.5586,14.99609 14.25352,0.31767 24.62169,-13.6659 26.35742,-26.51953 -1.76871,-3.95283 -4.57416,-7.67318 -8.44922,-9.76562 -2.16098,7.12061 -4.20287,16.51965 -11.69336,19.76172 -5.71252,1.01129 -3.64587,-6.53304 -3.08114,-9.80918 1.72746,-13.80496 3.55194,-27.59769 5.31747,-41.39786 -3.11335,-1.1193 -6.40838,-1.6562 -9.7168,-1.49609 z"
           style="font-style:normal;font-variant:normal;font-weight:bold;font-stretch:normal;font-size:medium;line-height:125%;font-family:'Lily Script One';-inkscape-font-specification:'Lily Script One Bold';letter-spacing:0px;word-spacing:0px;fill:#333333;fill-opacity:1;stroke:none;stroke-width:1px;stroke-linecap:butt;stroke-linejoin:miter;stroke-opacity:1" />
        <path
           id="path4173"
           d="m 651.00977,435.39062 c -4.13981,0.82545 -11.25893,0.0828 -10.07062,6.19655 -2.42797,20.78601 -4.85324,41.57233 -7.2829,62.35814 7.37956,0 14.75911,0 22.13867,0 2.0658,-15.28931 3.19695,-30.78558 6.2793,-45.88672 1.03011,-5.81871 9.58109,-10.67127 13.46094,-4.8457 2.2768,7.27212 -1.32311,15.19024 -1.1934,22.66043 -1.56528,8.01542 -2.38495,17.46404 3.9141,23.78684 9.58465,9.44505 26.88891,5.02697 33.45312,-5.95899 2.82595,-4.85703 6.6097,-10.56452 5.9629,-16.13281 -1.89533,-3.91751 -5.19615,-6.90115 -8.03711,-10.11133 -2.24971,7.49374 -3.38957,18.18221 -11.91016,21.04102 -4.89713,0.3593 -2.46805,-6.9532 -2.46563,-9.78132 0.40898,-10.21838 4.94517,-20.51158 2.48907,-30.69525 -4.92477,-13.86643 -24.72126,-16.05333 -35.39258,-7.70117 -1.97629,-4.19716 -7.17672,-5.13954 -11.3457,-4.92969 z"
           style="font-style:normal;font-variant:normal;font-weight:bold;font-stretch:normal;font-size:medium;line-height:125%;font-family:'Lily Script One';-inkscape-font-specification:'Lily Script One Bold';letter-spacing:0px;word-spacing:0px;fill:#333333;fill-opacity:1;stroke:none;stroke-width:1px;stroke-linecap:butt;stroke-linejoin:miter;stroke-opacity:1" />
        <path
           id="path4175"
           d="m 764.26367,435.37695 c -4.18858,-0.473 -7.68362,3.59613 -11.60937,1.31836 -16.85677,-4.51799 -36.70747,3.004 -44.24805,19.23438 -6.0384,13.25794 -6.86482,31.80529 5.05859,42.14062 3.26691,2.93172 7.25471,5.08923 11.54883,6.04688 -8.80837,8.29302 -12.66819,24.182 -3.76367,33.71484 11.43782,10.90148 32.06637,6.2428 38.7793,-7.73437 6.18124,-12.77255 4.92844,-27.58651 7.64843,-41.24024 7.43465,-5.36922 14.61225,-11.16486 20.89258,-17.87109 -2.66153,-2.6385 -4.08905,-15.2473 -7.74113,-9.94493 -3.20882,3.96969 -7.08522,7.47877 -10.94441,10.68126 1.46549,-11.47526 2.93097,-22.95053 4.39648,-34.42578 -3.11254,-1.52874 -6.57915,-2.02545 -10.01758,-1.91993 z m -18.85937,14.59766 c 7.28218,-1.04731 3.58886,6.50459 3.55473,10.87374 -1.64417,9.03461 0.29502,21.5536 -9.17192,26.81962 -7.34424,3.50353 -13.83106,-4.62846 -12.84766,-11.60938 0.31512,-11.22082 4.0386,-27.01567 18.46485,-26.08398 z m -3.28516,70.05469 c 0.28889,4.91975 -5.14361,10.27222 -9.69336,6.63476 -5.03218,-5.91365 1.01521,-14.21548 5.89453,-18.29492 1.94033,-1.29889 7.0519,-6.94795 5.26393,-1.27492 -0.48837,4.31169 -0.97673,8.62338 -1.4651,12.93508 z"
           style="font-style:normal;font-variant:normal;font-weight:bold;font-stretch:normal;font-size:medium;line-height:125%;font-family:'Lily Script One';-inkscape-font-specification:'Lily Script One Bold';letter-spacing:0px;word-spacing:0px;fill:#333333;fill-opacity:1;stroke:none;stroke-width:1px;stroke-linecap:butt;stroke-linejoin:miter;stroke-opacity:1" />
        <path
           id="path4177"
           d="m 847.53906,397.74414 c -14.60279,-0.1193 -29.88403,12.49279 -27.83789,27.95117 1.32033,7.77107 4.91234,14.91418 8.28906,21.95899 -12.57474,6.38618 -23.77538,19.37297 -21.49272,34.33368 1.28012,12.95824 13.31761,23.43178 26.34799,22.7531 15.63107,0.85502 31.8563,-11.65363 31.54512,-28.02624 0.51841,-20.49817 -16.57412,-35.61729 -20.87109,-54.67382 -1.51544,-9.98504 15.4938,-11.2876 17.05664,-2.02149 1.56821,6.03305 -2.06333,11.68305 -5.3457,16.40039 4.89875,-0.81169 11.78105,1.60655 15.51758,-1.09765 6.23792,-10.17596 5.96951,-25.27875 -4.375,-32.70704 -5.34552,-4.01915 -12.30329,-5.07703 -18.83399,-4.87109 z m -11.97851,64.77734 c 3.84432,7.07708 9.71367,17.52895 2.67968,24.47266 -7.40649,5.10706 -17.75801,-2.63304 -15.99609,-11.23828 0.49373,-7.10467 6.28995,-12.3167 12.13281,-15.56836 0.39453,0.77799 0.78907,1.55599 1.1836,2.33398 z"
           style="font-style:normal;font-variant:normal;font-weight:bold;font-stretch:normal;font-size:medium;line-height:125%;font-family:'Lily Script One';-inkscape-font-specification:'Lily Script One Bold';letter-spacing:0px;word-spacing:0px;fill:#333333;fill-opacity:1;stroke:none;stroke-width:1px;stroke-linecap:butt;stroke-linejoin:miter;stroke-opacity:1" />
        <path
           id="path4179"
           d="m 888.43164,398.00195 c -3.90878,0.23667 -10.00028,0.22304 -8.74934,5.81997 -3.7279,33.36977 -7.69172,66.75382 -11.58855,100.12339 7.27734,0 14.55469,0 21.83203,0 2.25067,-15.24817 3.22301,-30.78877 6.31836,-45.84765 1.18684,-5.5147 8.8922,-10.52638 13.18359,-5.35938 2.96927,6.59469 -1.02009,14.22286 -0.72115,21.14292 -1.18522,8.25055 -3.19282,17.97396 3.11373,24.79653 8.85324,10.00005 26.38253,6.34196 33.39453,-4.13085 3.24135,-4.99692 7.15405,-11.03797 6.64454,-16.93946 -1.89081,-3.92707 -5.19036,-6.92287 -8.04297,-10.13086 -2.07655,7.66836 -4.09203,18.33323 -12.75977,20.94532 -4.11927,-1.40603 -1.34075,-7.82482 -1.50439,-11.00782 0.35023,-10.02898 5.21485,-20.32233 2.05908,-30.24218 -5.25919,-12.67582 -23.00533,-14.72008 -33.61914,-7.82422 1.33428,-11.68347 3.96577,-23.43374 3.85742,-35.17578 -1.47072,-5.73177 -8.5914,-6.32404 -13.41797,-6.16993 z"
           style="font-style:normal;font-variant:normal;font-weight:bold;font-stretch:normal;font-size:medium;line-height:125%;font-family:'Lily Script One';-inkscape-font-specification:'Lily Script One Bold';letter-spacing:0px;word-spacing:0px;fill:#333333;fill-opacity:1;stroke:none;stroke-width:1px;stroke-linecap:butt;stroke-linejoin:miter;stroke-opacity:1" />
        <path
           id="path4181"
           d="m 973.30469,435.50977 c -17.60455,-0.44679 -34.84939,12.6989 -37.15625,30.51757 -2.72553,12.59393 1.663,27.11194 13.19726,33.8418 15.77237,9.3798 38.44788,5.13422 48.70899,-10.46484 7.20391,-10.86042 9.76281,-25.96406 3.90041,-37.96289 -5.51156,-10.37612 -16.96663,-16.56321 -28.65041,-15.93164 z m -0.96485,14.86328 c 9.31424,1.12983 10.14936,12.7629 9.83008,20.23047 -0.51021,8.3058 -5.32671,20.84037 -15.63476,18.89257 -9.17911,-3.1536 -8.81355,-15.12933 -7.34961,-23.04687 1.45579,-6.67594 4.89034,-16.33416 13.15429,-16.07617 z"
           style="font-style:normal;font-variant:normal;font-weight:bold;font-stretch:normal;font-size:medium;line-height:125%;font-family:'Lily Script One';-inkscape-font-specification:'Lily Script One Bold';letter-spacing:0px;word-spacing:0px;fill:#333333;fill-opacity:1;stroke:none;stroke-width:1px;stroke-linecap:butt;stroke-linejoin:miter;stroke-opacity:1" />
        <path
           id="path4183"
           d="m 1022.3633,435.38281 c -3.9071,0.2379 -9.992,0.22016 -8.7604,5.8131 -3.7355,33.1554 -7.6014,66.30967 -11.4427,99.46034 7.1927,0 14.3854,0 21.5781,0 1.4944,-12.10207 2.6892,-24.60742 4.375,-36.45703 16.8192,2.86888 36.4681,-4.47465 43.1816,-21.09961 5.6429,-13.13969 6.2637,-30.56927 -5.1703,-40.90793 -8.1495,-8.76403 -22.1837,-8.08213 -31.8687,-3.45535 -2.9728,-3.20993 -7.8095,-3.41172 -11.8926,-3.35352 z m 21.6269,16.32617 c 8.5712,0.99223 8.998,11.88649 8.0723,18.55079 -0.5003,8.98346 -7.2962,21.41204 -17.9258,17.79296 -6.6532,-2.80563 -1.796,-11.24394 -1.9915,-16.47202 0.8255,-7.19842 1.1436,-19.83957 11.845,-19.87173 z"
           style="font-style:normal;font-variant:normal;font-weight:bold;font-stretch:normal;font-size:medium;line-height:125%;font-family:'Lily Script One';-inkscape-font-specification:'Lily Script One Bold';letter-spacing:0px;word-spacing:0px;fill:#333333;fill-opacity:1;stroke:none;stroke-width:1px;stroke-linecap:butt;stroke-linejoin:miter;stroke-opacity:1" />
      </g>
    </g>
  </g>
</svg>
